<?xml version="1.0" encoding="UTF-8"?>
<svg version="1.1" xmlns="http://www.w3.org/2000/svg" width="114" height="137">
<path d="M0 0 C1.96289062 0.85449219 1.96289062 0.85449219 3.65625 2.046875 C4.28660156 2.48 4.91695312 2.913125 5.56640625 3.359375 C6.20449219 3.81828125 6.84257813 4.2771875 7.5 4.75 C8.13808594 5.1934375 8.77617188 5.636875 9.43359375 6.09375 C10.6942227 6.97026093 11.9484197 7.85610517 13.19555664 8.75170898 C14.96951681 10.01396608 14.96951681 10.01396608 16.80249023 11.04711914 C18.46484375 12.01953125 18.46484375 12.01953125 21 14 C21.41015625 16.40234375 21.41015625 16.40234375 21.0625 18.9375 C20.83828295 22.82967803 20.80281847 23.69190386 23 27.125 C27.12153463 29.70095914 29.18468737 29.53503474 34 29 C35.34090759 28.34870203 36.67592331 27.68486725 38 27 C42.22708516 27.41981325 44.88693319 28.99646647 48.3125 31.4375 C49.63701172 32.36369141 49.63701172 32.36369141 50.98828125 33.30859375 C51.65214844 33.86675781 52.31601563 34.42492188 53 35 C53 35.66 53 36.32 53 37 C52.36586182 37.598125 51.73172363 38.19625 51.07836914 38.8125 C43.60048686 46.68303039 46.90966208 65.45354113 47.11645508 75.6640625 C47.43441741 92.65546823 45.97228126 108.26600885 33.796875 121.3828125 C25.60706232 128.75364392 16.33457359 131.90310758 6 135 C4.50919922 135.56267578 4.50919922 135.56267578 2.98828125 136.13671875 C-4.37021495 138.26250654 -10.38618489 136.25119714 -17.375 133.875 C-18.26960938 133.59140625 -19.16421875 133.3078125 -20.0859375 133.015625 C-26.45216122 130.8873816 -31.58876373 127.94197432 -37 124 C-37.886875 123.401875 -38.77375 122.80375 -39.6875 122.1875 C-48.74938061 113.61545078 -53.39115083 100.79301425 -54.15481567 88.50987244 C-54.18023521 85.98154216 -54.1477975 83.46136229 -54.08984375 80.93359375 C-54.06943235 79.04752851 -54.04925714 77.1614607 -54.02929688 75.27539062 C-53.9858185 72.35054897 -53.9372867 69.4258919 -53.88354492 66.5012207 C-53.83496189 63.64535201 -53.80530897 60.78972819 -53.77734375 57.93359375 C-53.75558578 57.07084335 -53.73382782 56.20809296 -53.71141052 55.31919861 C-53.66419478 49.46889475 -54.51597794 44.34301711 -57 39 C-57.66 38.34 -58.32 37.68 -59 37 C-59 36.01 -59 35.02 -59 34 C-56.76953125 32.140625 -56.76953125 32.140625 -53.8125 30.25 C-52.84957031 29.61578125 -51.88664062 28.9815625 -50.89453125 28.328125 C-47.61487272 26.82328843 -46.35985529 26.86263966 -43 28 C-42.34 28.33 -41.68 28.66 -41 29 C-36.54139248 29.60251453 -33.14628917 29.83874817 -29.4375 27.125 C-27.85946337 23.69448558 -28.08528536 22.85672852 -28.57421875 19.28125 C-28.62171769 15.77780479 -28.4455806 14.48315166 -26.03979492 11.87451172 C-23.23674391 9.84379596 -20.38030412 8.09177524 -17.375 6.375 C-16.37597656 5.75238281 -15.37695312 5.12976563 -14.34765625 4.48828125 C-5.89411815 -0.60623509 -5.89411815 -0.60623509 0 0 Z " fill="#F3F8F4" transform="translate(59,0)"/>
<path d="M0 0 C0.598125 0.165 1.19625 0.33 1.8125 0.5 C4.11344336 1.1114124 4.11344336 1.1114124 7 1 C6.98839844 1.74765625 6.97679687 2.4953125 6.96484375 3.265625 C6.95582031 4.25046875 6.94679688 5.2353125 6.9375 6.25 C6.92589844 7.22453125 6.91429687 8.1990625 6.90234375 9.203125 C6.89879262 11.9318117 6.89879262 11.9318117 7.56640625 14.234375 C8 16 8 16 7 18 C7.46005197 23.33393588 8.81844388 28.02947147 10.6875 33 C10.95079102 33.70261963 11.21408203 34.40523926 11.48535156 35.12915039 C13.70440351 40.77220213 16.30653738 46.15326869 22 49 C22 49.99 22 50.98 22 52 C30.44715592 54.65008813 39.34834917 55.00641253 48 53 C47.67 52.01 47.34 51.02 47 50 C46.93259135 48.43881572 46.91485544 46.8749748 46.9375 45.3125 C46.94652344 44.50425781 46.95554688 43.69601563 46.96484375 42.86328125 C46.97644531 42.24839844 46.98804688 41.63351563 47 41 C44.36 40.67 41.72 40.34 39 40 C39.495 44.95 39.495 44.95 40 50 C38.02 50 36.04 50 34 50 C34.495 45.05 34.495 45.05 35 40 C33.68 39.34 32.36 38.68 31 38 C28.94754845 33.46300183 28.55269369 28.89528694 28 24 C27.69830934 22.65915264 27.38482319 21.3193938 27 20 C29.64 20 32.28 20 35 20 C35 18.02 35 16.04 35 14 C34.34 13.67 33.68 13.34 33 13 C35.31 13 37.62 13 40 13 C39.34 13.33 38.68 13.66 38 14 C38 15.98 38 17.96 38 20 C38.99 20.020625 39.98 20.04125 41 20.0625 C46.30102283 20.87639441 49.64430997 23.97317196 53 28 C55.28235728 31.88630688 57.20827455 35.86681515 59 40 C67.17266251 31.82733749 66.02132648 15.330114 66.0625 4.625 C66.04694942 3.083271 66.02831414 1.54154742 66 0 C66.763125 0.185625 67.52625 0.37125 68.3125 0.5625 C71.08967375 1.22819173 71.08967375 1.22819173 74 0 C73.97679688 1.21816406 73.95359375 2.43632813 73.9296875 3.69140625 C73.9109165 5.31509799 73.89271773 6.93879642 73.875 8.5625 C73.84986328 9.76229492 73.84986328 9.76229492 73.82421875 10.98632812 C73.78300868 16.03456114 74.42403147 20.15133055 76 25 C77.10407302 34.1480336 73.37051227 43.15380705 68 50.5 C65.52791733 53.53421 62.76611419 56.23388581 60 59 C59.67 59.99 59.34 60.98 59 62 C56.85546875 63.1328125 56.85546875 63.1328125 54.1875 64.125 C52.87845703 64.62386719 52.87845703 64.62386719 51.54296875 65.1328125 C39.59497457 69.2072437 26.23221762 67.86410215 14.9375 62.5625 C13 61 13 61 12.5625 59.125 C11.79612089 56.22979001 9.97055463 55.38875831 7.69140625 53.609375 C1.60317019 47.81641136 -1.77418727 39.51625468 -2.1875 31.25 C-2 28 -2 28 -1 25 C-1 22.85406554 -1.02348946 20.70807985 -1.0625 18.5625 C-1 15 -1 15 -0.4375 12.875 C0.15802426 10.92008229 0.15802426 10.92008229 -0.5 8.625 C-1.09456401 5.50353897 -0.64642077 3.08845478 0 0 Z " fill="#235D25" transform="translate(19,59)"/>
<path d="M0 0 C1.96289062 0.85449219 1.96289062 0.85449219 3.65625 2.046875 C4.28660156 2.48 4.91695312 2.913125 5.56640625 3.359375 C6.20449219 3.81828125 6.84257813 4.2771875 7.5 4.75 C8.13808594 5.1934375 8.77617188 5.636875 9.43359375 6.09375 C10.6942227 6.97026093 11.9484197 7.85610517 13.19555664 8.75170898 C14.96951681 10.01396608 14.96951681 10.01396608 16.80249023 11.04711914 C18.46484375 12.01953125 18.46484375 12.01953125 21 14 C21.41015625 16.40234375 21.41015625 16.40234375 21.0625 18.9375 C20.83828295 22.82967803 20.80281847 23.69190386 23 27.125 C27.12153463 29.70095914 29.18468737 29.53503474 34 29 C35.34090759 28.34870203 36.67592331 27.68486725 38 27 C42.22708516 27.41981325 44.88693319 28.99646647 48.3125 31.4375 C49.63701172 32.36369141 49.63701172 32.36369141 50.98828125 33.30859375 C51.65214844 33.86675781 52.31601563 34.42492188 53 35 C53 35.66 53 36.32 53 37 C52.36586182 37.598125 51.73172363 38.19625 51.07836914 38.8125 C43.60048686 46.68303039 46.90966208 65.45354113 47.11645508 75.6640625 C47.43441741 92.65546823 45.97228126 108.26600885 33.796875 121.3828125 C25.60706232 128.75364392 16.33457359 131.90310758 6 135 C4.50919922 135.56267578 4.50919922 135.56267578 2.98828125 136.13671875 C-4.37021495 138.26250654 -10.38618489 136.25119714 -17.375 133.875 C-18.26960938 133.59140625 -19.16421875 133.3078125 -20.0859375 133.015625 C-26.45216122 130.8873816 -31.58876373 127.94197432 -37 124 C-37.886875 123.401875 -38.77375 122.80375 -39.6875 122.1875 C-48.74938061 113.61545078 -53.39115083 100.79301425 -54.15481567 88.50987244 C-54.18023521 85.98154216 -54.1477975 83.46136229 -54.08984375 80.93359375 C-54.06943235 79.04752851 -54.04925714 77.1614607 -54.02929688 75.27539062 C-53.9858185 72.35054897 -53.9372867 69.4258919 -53.88354492 66.5012207 C-53.83496189 63.64535201 -53.80530897 60.78972819 -53.77734375 57.93359375 C-53.75558578 57.07084335 -53.73382782 56.20809296 -53.71141052 55.31919861 C-53.66419478 49.46889475 -54.51597794 44.34301711 -57 39 C-57.66 38.34 -58.32 37.68 -59 37 C-59 36.01 -59 35.02 -59 34 C-56.76953125 32.140625 -56.76953125 32.140625 -53.8125 30.25 C-52.84957031 29.61578125 -51.88664062 28.9815625 -50.89453125 28.328125 C-47.61487272 26.82328843 -46.35985529 26.86263966 -43 28 C-42.34 28.33 -41.68 28.66 -41 29 C-36.54139248 29.60251453 -33.14628917 29.83874817 -29.4375 27.125 C-27.85946337 23.69448558 -28.08528536 22.85672852 -28.57421875 19.28125 C-28.62171769 15.77780479 -28.4455806 14.48315166 -26.03979492 11.87451172 C-23.23674391 9.84379596 -20.38030412 8.09177524 -17.375 6.375 C-16.37597656 5.75238281 -15.37695312 5.12976563 -14.34765625 4.48828125 C-5.89411815 -0.60623509 -5.89411815 -0.60623509 0 0 Z M-13.75 10.9375 C-14.43449219 11.40607422 -15.11898437 11.87464844 -15.82421875 12.35742188 C-19.0596957 14.4944899 -19.0596957 14.4944899 -22 17 C-22.13201346 18.39347545 -22.23058033 19.79018452 -22.3125 21.1875 C-22.79022373 25.74035189 -23.91317028 28.49603113 -27 32 C-31.56118695 35.10990019 -35.63617687 35.68656936 -41 35 C-42.0725 34.608125 -43.145 34.21625 -44.25 33.8125 C-45.1575 33.544375 -46.065 33.27625 -47 33 C-49.38305196 34.24348469 -49.38305196 34.24348469 -51 36 C-50.67563965 36.92022949 -50.3512793 37.84045898 -50.01708984 38.78857422 C-48.55543747 43.93487235 -48.72146284 49.07015123 -48.7265625 54.3828125 C-48.70626339 56.6250049 -48.68541243 58.86719236 -48.6640625 61.109375 C-48.64155316 64.61104514 -48.62502096 68.11251885 -48.61914062 71.61425781 C-48.63452514 96.52475273 -48.63452514 96.52475273 -36.48046875 117.671875 C-28.37372151 125.32495998 -17.70633311 128.84008664 -7 131 C-6.2265625 131.23074219 -5.453125 131.46148437 -4.65625 131.69921875 C-0.83707774 132.13168384 2.44616195 131.1027833 6.0625 130 C7.18869751 129.6582373 7.18869751 129.6582373 8.33764648 129.30957031 C20.33381238 125.47346048 30.31478492 119.4216741 36.5625 108.19140625 C40.63176368 99.67138543 41.15232668 92.0787021 41.24609375 82.7578125 C41.27902841 80.53515226 41.31224012 78.3124961 41.34570312 76.08984375 C41.39308303 72.60533409 41.43754685 69.12084146 41.47680664 65.63623047 C41.51667679 62.25992118 41.56817665 58.88393906 41.62109375 55.5078125 C41.6295079 54.47423615 41.63792206 53.44065979 41.64659119 52.37576294 C41.72281127 47.88249081 41.92100676 43.7624955 43.09008789 39.40966797 C44.36905573 36.14925688 44.36905573 36.14925688 42.9375 33.9375 C39.45171646 32.25083055 36.49657289 33.8344757 33 35 C27.99501383 35.48124867 24.67882723 34.93249907 20.5078125 32.2578125 C17.98774609 30.15558093 17.06438283 28.07488372 16 25 C15.979375 23.700625 15.95875 22.40125 15.9375 21.0625 C15.67137527 18.03677753 15.19770011 17.18389841 12.9296875 15.07421875 C10.34246486 13.27088596 7.70332326 11.62281564 5 10 C3.89141441 9.19353967 2.78627978 8.38227026 1.6875 7.5625 C-4.58902771 3.91335598 -8.45842358 7.20077021 -13.75 10.9375 Z " fill="#2B5F3A" transform="translate(59,0)"/>
<path d="M0 0 C3.19969988 1.45440903 6.3223051 2.98489291 9.421875 4.640625 C9.421875 5.960625 9.421875 7.280625 9.421875 8.640625 C21.73382904 13.69157638 21.73382904 13.69157638 34.421875 17.640625 C34.31359375 18.54554687 34.31359375 18.54554687 34.203125 19.46875 C34.1103125 20.26796875 34.0175 21.0671875 33.921875 21.890625 C33.8290625 22.67953125 33.73625 23.4684375 33.640625 24.28125 C33.36032881 26.90952897 33.36032881 26.90952897 33.421875 30.640625 C28.78171922 30.1987054 24.32813443 29.67779381 19.796875 28.578125 C15.89066198 27.65134335 12.42682146 27.47020175 8.421875 27.640625 C8.421875 27.310625 8.421875 26.980625 8.421875 26.640625 C10.071875 26.310625 11.721875 25.980625 13.421875 25.640625 C12.63941406 25.26550781 11.85695312 24.89039062 11.05078125 24.50390625 C10.03886719 23.99214844 9.02695313 23.48039062 7.984375 22.953125 C6.97503906 22.45425781 5.96570313 21.95539062 4.92578125 21.44140625 C2.421875 19.640625 2.421875 19.640625 1.765625 17.046875 C1.6521875 16.2528125 1.53875 15.45875 1.421875 14.640625 C-3.67214423 11.62579729 -7.7174719 11.07346502 -13.578125 11.640625 C-17.32360104 13.37030213 -17.32360104 13.37030213 -19.578125 16.640625 C-18.588125 16.970625 -17.598125 17.300625 -16.578125 17.640625 C-16.248125 16.980625 -15.918125 16.320625 -15.578125 15.640625 C-14.918125 15.640625 -14.258125 15.640625 -13.578125 15.640625 C-13.3925 16.5996875 -13.3925 16.5996875 -13.203125 17.578125 C-12.996875 18.25875 -12.790625 18.939375 -12.578125 19.640625 C-11.918125 19.970625 -11.258125 20.300625 -10.578125 20.640625 C-10.578125 18.660625 -10.578125 16.680625 -10.578125 14.640625 C-9.588125 14.640625 -8.598125 14.640625 -7.578125 14.640625 C-6.918125 15.630625 -6.258125 16.620625 -5.578125 17.640625 C-5.083125 16.155625 -5.083125 16.155625 -4.578125 14.640625 C-3.918125 14.640625 -3.258125 14.640625 -2.578125 14.640625 C-1.53187091 15.93798007 -0.53111277 17.27329472 0.421875 18.640625 C0.751875 18.970625 1.081875 19.300625 1.421875 19.640625 C2.03175851 25.31723307 1.54971439 28.81853927 -1.578125 33.640625 C-1.61978263 35.64019111 -1.61978263 37.64105889 -1.578125 39.640625 C-2.238125 41.290625 -2.898125 42.940625 -3.578125 44.640625 C-7.208125 44.640625 -10.838125 44.640625 -14.578125 44.640625 C-15.238125 46.950625 -15.898125 49.260625 -16.578125 51.640625 C-17.898125 51.310625 -19.218125 50.980625 -20.578125 50.640625 C-20.578125 49.980625 -20.578125 49.320625 -20.578125 48.640625 C-21.238125 48.640625 -21.898125 48.640625 -22.578125 48.640625 C-22.578125 47.650625 -22.578125 46.660625 -22.578125 45.640625 C-22.908125 46.300625 -23.238125 46.960625 -23.578125 47.640625 C-24.238125 47.640625 -24.898125 47.640625 -25.578125 47.640625 C-25.578125 46.980625 -25.578125 46.320625 -25.578125 45.640625 C-26.238125 45.640625 -26.898125 45.640625 -27.578125 45.640625 C-28.203125 43.765625 -28.203125 43.765625 -28.578125 41.640625 C-27.918125 40.980625 -27.258125 40.320625 -26.578125 39.640625 C-28.558125 40.135625 -28.558125 40.135625 -30.578125 40.640625 C-30.908125 39.650625 -31.238125 38.660625 -31.578125 37.640625 C-30.918125 36.980625 -30.258125 36.320625 -29.578125 35.640625 C-31.063125 35.145625 -31.063125 35.145625 -32.578125 34.640625 C-31.588125 34.145625 -31.588125 34.145625 -30.578125 33.640625 C-33.53189998 31.27082487 -33.53189998 31.27082487 -37.578125 31.640625 C-37.578125 30.650625 -37.578125 29.660625 -37.578125 28.640625 C-38.16980469 28.785 -38.76148438 28.929375 -39.37109375 29.078125 C-40.16128906 29.26375 -40.95148437 29.449375 -41.765625 29.640625 C-42.54292969 29.82625 -43.32023437 30.011875 -44.12109375 30.203125 C-46.65802725 30.65485243 -49.00692403 30.71369643 -51.578125 30.640625 C-51.5059375 29.96515625 -51.43375 29.2896875 -51.359375 28.59375 C-51.2665625 27.70171875 -51.17375 26.8096875 -51.078125 25.890625 C-50.9853125 25.00890625 -50.8925 24.1271875 -50.796875 23.21875 C-50.52176187 20.40757665 -50.52176187 20.40757665 -50.578125 16.640625 C-48.95003906 16.15142578 -48.95003906 16.15142578 -47.2890625 15.65234375 C-45.84366499 15.21121594 -44.39835722 14.76979404 -42.953125 14.328125 C-42.24027344 14.11478516 -41.52742188 13.90144531 -40.79296875 13.68164062 C-36.47566838 12.35476391 -32.61073796 10.70537128 -28.578125 8.640625 C-27.918125 8.640625 -27.258125 8.640625 -26.578125 8.640625 C-26.578125 7.320625 -26.578125 6.000625 -26.578125 4.640625 C-17.48000698 -0.69439709 -10.24932281 -3.89384753 0 0 Z " fill="#235232" transform="translate(64.578125,26.359375)"/>
<path d="M0 0 C0.33 0.66 0.66 1.32 1 2 C1.928125 1.938125 2.85625 1.87625 3.8125 1.8125 C7 2 7 2 8.875 3.5 C9.24625 3.995 9.6175 4.49 10 5 C9.01 5.495 9.01 5.495 8 6 C8.99 6.33 9.98 6.66 11 7 C9.02 7.99 9.02 7.99 7 9 C7.66 9.66 8.32 10.32 9 11 C11.10820797 10.6814823 11.10820797 10.6814823 13 10 C12.505 10.4125 12.01 10.825 11.5 11.25 C9.56613908 13.12202338 9.56613908 13.12202338 10 17 C10.66 17 11.32 17 12 17 C12 17.66 12 18.32 12 19 C12.66 19 13.32 19 14 19 C14.66 17.68 15.32 16.36 16 15 C16 18 16 18 15 20 C16.32 20.33 17.64 20.66 19 21 C19 21.66 19 22.32 19 23 C21.35785318 22.10664203 21.35785318 22.10664203 22.125 18.9375 C22.41375 17.968125 22.7025 16.99875 23 16 C23.33 16.99 23.66 17.98 24 19 C24.66 19 25.32 19 26 19 C26 20.32 26 21.64 26 23 C23.69 23.33 21.38 23.66 19 24 C19.4640625 24.81984375 19.4640625 24.81984375 19.9375 25.65625 C21.50081121 29.10473061 21.86502885 32.62268753 22.4375 36.34375 C22.97917516 38.9016605 23.62922558 40.78257079 25 43 C25.66 43.33 26.32 43.66 27 44 C26.505 48.95 26.505 48.95 26 54 C27.98 54 29.96 54 32 54 C31.67 50.7 31.34 47.4 31 44 C36.75 43.875 36.75 43.875 39 45 C39.4140625 47.72265625 39.4140625 47.72265625 39.625 51.0625 C39.69976562 52.16722656 39.77453125 53.27195313 39.8515625 54.41015625 C39.90054688 55.26480469 39.94953125 56.11945313 40 57 C33.60080408 59.97995951 26.18641011 60.07775141 19.375 58.32421875 C17.54836322 57.63596811 15.76620306 56.83115438 14 56 C14 55.01 14 54.02 14 53 C13.443125 52.79375 12.88625 52.5875 12.3125 52.375 C6.44014303 48.88332829 3.93804172 43.3009242 1.75 37.125 C1.49476562 36.45597656 1.23953125 35.78695312 0.9765625 35.09765625 C-1.04489035 29.57589821 -2.91592644 23.74777932 -1 18 C-1.31856451 15.99759451 -1.65421232 13.99788438 -2 12 C-2.03762951 9.66697011 -2.04665734 7.33286681 -2 5 C-3.32 5.33 -4.64 5.66 -6 6 C-6 3 -6 3 -4.6875 1.3125 C-3 0 -3 0 0 0 Z " fill="#F5F9F5" transform="translate(27,55)"/>
<path d="M0 0 C1.56640625 1.36328125 1.56640625 1.36328125 1.95703125 3.8046875 C2.32914451 6.57920522 2.32914451 6.57920522 4.9296875 8.12890625 C5.90292969 8.61875 6.87617187 9.10859375 7.87890625 9.61328125 C8.84441406 10.1134375 9.80992188 10.61359375 10.8046875 11.12890625 C13.10940888 12.15902217 15.1160645 12.84005817 17.56640625 13.36328125 C19.57022634 14.01837628 21.57098757 14.68302488 23.56640625 15.36328125 C23.07398438 16.01554687 22.5815625 16.6678125 22.07421875 17.33984375 C20.14881369 21.20063007 20.27248183 24.53720431 20.44140625 28.73828125 C20.69324556 37.12304902 19.78342685 44.3670796 17.00390625 52.30078125 C16.65295898 53.32655273 16.65295898 53.32655273 16.29492188 54.37304688 C15.72428796 56.03836626 15.14613527 57.70110618 14.56640625 59.36328125 C13.57640625 59.36328125 12.58640625 59.36328125 11.56640625 59.36328125 C11.03853516 58.16832031 11.03853516 58.16832031 10.5 56.94921875 C7.19070259 49.846758 4.16490273 43.59393219 -3.43359375 40.56640625 C-5.54010256 39.90671344 -5.54010256 39.90671344 -8.43359375 39.36328125 C-8.43359375 37.38328125 -8.43359375 35.40328125 -8.43359375 33.36328125 C-9.42359375 33.36328125 -10.41359375 33.36328125 -11.43359375 33.36328125 C-11.43359375 35.34328125 -11.43359375 37.32328125 -11.43359375 39.36328125 C-12.42359375 39.03328125 -13.41359375 38.70328125 -14.43359375 38.36328125 C-13.77359375 38.36328125 -13.11359375 38.36328125 -12.43359375 38.36328125 C-12.43359375 37.04328125 -12.43359375 35.72328125 -12.43359375 34.36328125 C-13.09359375 34.36328125 -13.75359375 34.36328125 -14.43359375 34.36328125 C-14.43359375 33.37328125 -14.43359375 32.38328125 -14.43359375 31.36328125 C-11.13359375 31.36328125 -7.83359375 31.36328125 -4.43359375 31.36328125 C-4.39621094 30.62722656 -4.35882813 29.89117187 -4.3203125 29.1328125 C-3.94347486 23.53935963 -3.34324985 20.17053915 -0.43359375 15.36328125 C-0.17661011 12.3462933 -0.25594105 9.38337711 -0.43359375 6.36328125 C-1.09359375 6.36328125 -1.75359375 6.36328125 -2.43359375 6.36328125 C-2.76359375 4.71328125 -3.09359375 3.06328125 -3.43359375 1.36328125 C-4.09359375 1.36328125 -4.75359375 1.36328125 -5.43359375 1.36328125 C-5.76359375 2.68328125 -6.09359375 4.00328125 -6.43359375 5.36328125 C-7.09359375 4.04328125 -7.75359375 2.72328125 -8.43359375 1.36328125 C-9.42359375 1.36328125 -10.41359375 1.36328125 -11.43359375 1.36328125 C-11.43359375 3.34328125 -11.43359375 5.32328125 -11.43359375 7.36328125 C-12.42359375 7.03328125 -13.41359375 6.70328125 -14.43359375 6.36328125 C-14.43359375 5.04328125 -14.43359375 3.72328125 -14.43359375 2.36328125 C-15.09359375 2.36328125 -15.75359375 2.36328125 -16.43359375 2.36328125 C-16.76359375 3.35328125 -17.09359375 4.34328125 -17.43359375 5.36328125 C-18.42359375 4.70328125 -19.41359375 4.04328125 -20.43359375 3.36328125 C-19.51846056 1.07544828 -18.77874729 -0.37121603 -16.80859375 -1.88671875 C-10.52517539 -3.87095613 -5.74518204 -2.7320533 0 0 Z " fill="#F2F7F3" transform="translate(65.43359375,39.63671875)"/>
<path d="M0 0 C0.99 0 1.98 0 3 0 C3.66 0.99 4.32 1.98 5 3 C5.33 2.01 5.66 1.02 6 0 C6.66 0 7.32 0 8 0 C9.04625409 1.29735507 10.04701223 2.63266972 11 4 C11.495 4.495 11.495 4.495 12 5 C12.60988351 10.67660807 12.12783939 14.17791427 9 19 C8.95834237 20.99956611 8.95834237 23.00043389 9 25 C8.34 26.65 7.68 28.3 7 30 C3.37 30 -0.26 30 -4 30 C-4.66 32.31 -5.32 34.62 -6 37 C-7.32 36.67 -8.64 36.34 -10 36 C-10 35.34 -10 34.68 -10 34 C-10.66 34 -11.32 34 -12 34 C-12 33.01 -12 32.02 -12 31 C-12.33 31.66 -12.66 32.32 -13 33 C-13.66 33 -14.32 33 -15 33 C-15 32.34 -15 31.68 -15 31 C-15.66 31 -16.32 31 -17 31 C-17.625 29.125 -17.625 29.125 -18 27 C-17.34 26.34 -16.68 25.68 -16 25 C-17.32 25.33 -18.64 25.66 -20 26 C-20.33 25.01 -20.66 24.02 -21 23 C-20.34 22.34 -19.68 21.68 -19 21 C-19.99 20.67 -20.98 20.34 -22 20 C-21.34 19.67 -20.68 19.34 -20 19 C-22.95377498 16.63019987 -22.95377498 16.63019987 -27 17 C-27 16.01 -27 15.02 -27 14 C-27.66 13.67 -28.32 13.34 -29 13 C-27.7625 12.896875 -26.525 12.79375 -25.25 12.6875 C-21.58886852 12.2202577 -19.81250925 11.46094559 -17 9 C-14.95283008 7.6968818 -12.88033756 6.44073275 -10.8046875 5.18359375 C-8.86015519 3.99581803 -8.86015519 3.99581803 -7 2 C-6.67 2.33 -6.34 2.66 -6 3 C-5.67 2.34 -5.34 1.68 -5 1 C-4.34 1 -3.68 1 -3 1 C-2.87625 1.639375 -2.7525 2.27875 -2.625 2.9375 C-2.41875 3.618125 -2.2125 4.29875 -2 5 C-1.34 5.33 -0.68 5.66 0 6 C0 4.02 0 2.04 0 0 Z " fill="#E1E8E2" transform="translate(54,41)"/>
<path d="M0 0 C0.763125 0.185625 1.52625 0.37125 2.3125 0.5625 C5.08967375 1.22819173 5.08967375 1.22819173 8 0 C7.97679687 1.21816406 7.95359375 2.43632813 7.9296875 3.69140625 C7.9109165 5.31509799 7.89271773 6.93879642 7.875 8.5625 C7.85824219 9.36236328 7.84148437 10.16222656 7.82421875 10.98632812 C7.78292895 16.04432807 8.47277672 20.13197581 10 25 C10.21794764 27.71562756 10.0958736 30.26760245 10 33 C8.02 33.495 8.02 33.495 6 34 C6.20367187 34.56332031 6.40734375 35.12664062 6.6171875 35.70703125 C7.38587021 40.3112838 4.42674676 44.24510129 2 48 C-0.76164327 51.27824437 -3.60690688 54.36939972 -7 57 C-7.99 57 -8.98 57 -10 57 C-11.75 54.75 -11.75 54.75 -13 52 C-12.6875 49.6875 -12.6875 49.6875 -12 48 C-13.485 48.495 -13.485 48.495 -15 49 C-15 49.99 -15 50.98 -15 52 C-15.66 52 -16.32 52 -17 52 C-17.02126953 50.86111328 -17.02126953 50.86111328 -17.04296875 49.69921875 C-17.18583877 46.72211644 -17.38933607 43.9190602 -18 41 C-20.3726974 38.99135641 -20.3726974 38.99135641 -23 38 C-23.8125 35.8125 -23.8125 35.8125 -24 34 C-22.35 34.99 -20.7 35.98 -19 37 C-19.598125 36.113125 -20.19625 35.22625 -20.8125 34.3125 C-23 31 -23 31 -24.375 28.25 C-26.51337141 25.28917804 -28.52320369 24.84988354 -32 24 C-31.505 22.515 -31.505 22.515 -31 21 C-25.83850363 20.35481295 -22.97558504 21.77110552 -18.82421875 24.5703125 C-16.43132871 26.44568242 -14.72664338 28.50595956 -13 31 C-11.39381384 33.16217368 -9.90728115 35.09271885 -8 37 C-7.34 37.99 -6.68 38.98 -6 40 C-2.29982083 30.25118846 -0.14877563 21.53827411 0 11 C0.01546875 9.90429688 0.0309375 8.80859375 0.046875 7.6796875 C0.05997695 5.11825593 0.04703742 2.56092616 0 0 Z " fill="#236027" transform="translate(85,59)"/>
<path d="M0 0 C1.9375 0.3125 1.9375 0.3125 4 1 C4.97055624 3.91166871 5.12958747 5.78563261 5.1418457 8.81591797 C5.14888016 9.79478973 5.15591461 10.7736615 5.16316223 11.78219604 C5.16940865 13.37114182 5.16940865 13.37114182 5.17578125 14.9921875 C5.19900199 17.24740494 5.2231202 19.50261327 5.24804688 21.7578125 C5.28297561 25.30344529 5.31239984 28.84874837 5.32592773 32.39453125 C5.09730214 56.31228319 5.09730214 56.31228319 16 77 C24.71699829 85.27292479 34.46606411 88.47091071 46 91 C46.76699219 91.23976563 47.53398438 91.47953125 48.32421875 91.7265625 C52.36101739 92.13908207 55.73482953 90.89986945 59.5625 89.6875 C60.31724609 89.46126953 61.07199219 89.23503906 61.84960938 89.00195312 C65.42322414 87.90940306 68.65702452 86.67553493 72 85 C74.25 85.375 74.25 85.375 76 86 C75.505 87.485 75.505 87.485 75 89 C73.515 88.505 73.515 88.505 72 88 C71.505 89.485 71.505 89.485 71 91 C70.34 91 69.68 91 69 91 C69 91.66 69 92.32 69 93 C66.48283718 93.84610515 63.96220727 94.67696767 61.4375 95.5 C60.38079102 95.85771484 60.38079102 95.85771484 59.30273438 96.22265625 C50.60437649 99.02857815 44.11250896 97.76075305 35.625 94.875 C34.73039062 94.59140625 33.83578125 94.3078125 32.9140625 94.015625 C26.54783878 91.8873816 21.41123627 88.94197432 16 85 C15.113125 84.401875 14.22625 83.80375 13.3125 83.1875 C9.84245427 79.90502431 7.48254131 76.05648681 5 72 C4.401875 71.071875 3.80375 70.14375 3.1875 69.1875 C-0.02765203 60.55735509 0.81968748 50.12992767 0.68359375 41.015625 C0.66281265 39.83401794 0.64203156 38.65241089 0.62062073 37.43499756 C0.55588913 33.706717 0.49660013 29.97837364 0.4375 26.25 C0.3942419 23.70311883 0.35062545 21.15624372 0.30664062 18.609375 C0.20028756 12.40631397 0.09838784 6.20319222 0 0 Z " fill="#1C542C" transform="translate(6,39)"/>
<path d="M0 0 C2.31 0 4.62 0 7 0 C6.01 0.495 6.01 0.495 5 1 C5 2.98 5 4.96 5 7 C5.99 7.020625 6.98 7.04125 8 7.0625 C13.23671325 7.7969171 16.49206154 11.27922032 20 15 C22.0625 17.75 22.0625 17.75 23 20 C22.505 21.485 22.505 21.485 22 23 C21.6596875 22.40832031 21.319375 21.81664063 20.96875 21.20703125 C17.53350257 15.60648158 14.20578864 11.51186683 8 9 C4.66288592 8.57751523 4.66288592 8.57751523 2 9 C1.67 9.66 1.34 10.32 1 11 C2.11375 10.87625 2.11375 10.87625 3.25 10.75 C6 11 6 11 8.125 12.625 C10.89596962 16.13489485 12.59103472 19.77310415 14 24 C12.68 23.67 11.36 23.34 10 23 C10 23.66 10 24.32 10 25 C10.61875 25.12375 11.2375 25.2475 11.875 25.375 C14 26 14 26 16 28 C16.1953125 30.6015625 16.1953125 30.6015625 16.125 33.625 C16.10695312 34.62789062 16.08890625 35.63078125 16.0703125 36.6640625 C16.04710937 37.43492188 16.02390625 38.20578125 16 39 C16.66 39 17.32 39 18 39 C18 38.01 18 37.02 18 36 C19.65 35.34 21.3 34.68 23 34 C22.62875 34.721875 22.2575 35.44375 21.875 36.1875 C20.81025859 39.60988311 21.39660152 40.88228073 23 44 C30.82221802 40.20740945 35.76637688 32.84066682 39 25 C39.495 23.515 39.495 23.515 40 22 C39.34 21.67 38.68 21.34 38 21 C39.485 20.01 39.485 20.01 41 19 C42.58746418 23.80774866 41.27364307 26.45271386 39.0625 30.875 C36.37801108 36.18462924 33.47284324 40.09082626 28.6015625 43.5703125 C26.67848897 45.28700741 26.37695115 46.49058235 26 49 C25.01 48.67 24.02 48.34 23 48 C23 47.34 23 46.68 23 46 C22.2575 45.01 22.2575 45.01 21.5 44 C20 42 20 42 20 40 C19.42894531 40.28875 18.85789063 40.5775 18.26953125 40.875 C7.37438035 45.86355876 -2.86395088 44.74921093 -14 41 C-14.09539063 40.25234375 -14.19078125 39.5046875 -14.2890625 38.734375 C-15.10100522 35.61151839 -16.10559509 34.49067827 -18.375 32.25 C-22.13539909 28.20390323 -23.7078055 24.31645738 -25 19 C-24.34 18.34 -23.68 17.68 -23 17 C-22.78085937 17.71285156 -22.56171875 18.42570312 -22.3359375 19.16015625 C-20.23978399 25.49122154 -17.99041428 30.46585217 -13 35 C-12.34 35.33 -11.68 35.66 -11 36 C-11 36.99 -11 37.98 -11 39 C-2.55284408 41.65008813 6.34834917 42.00641253 15 40 C14.67 39.01 14.34 38.02 14 37 C13.93259135 35.43881572 13.91485544 33.8749748 13.9375 32.3125 C13.94652344 31.50425781 13.95554688 30.69601563 13.96484375 29.86328125 C13.97644531 29.24839844 13.98804688 28.63351563 14 28 C11.36 27.67 8.72 27.34 6 27 C6.33 30.3 6.66 33.6 7 37 C5.02 37 3.04 37 1 37 C1.33 33.7 1.66 30.4 2 27 C0.68 26.34 -0.64 25.68 -2 25 C-4.05245155 20.46300183 -4.44730631 15.89528694 -5 11 C-5.30169066 9.65915264 -5.61517681 8.3193938 -6 7 C-3.36 7 -0.72 7 2 7 C2 5.02 2 3.04 2 1 C1.34 0.67 0.68 0.34 0 0 Z " fill="#2F6531" transform="translate(52,72)"/>
<path d="M0 0 C1.06513602 2.1108175 2.10700713 4.22753096 3.11328125 6.3671875 C6.13116553 12.67820283 9.28170221 17.35516972 14.3125 22.25 C16 24 16 24 16 26 C17.58199631 26.64910154 19.16565724 27.29414694 20.75 27.9375 C21.63171875 28.29714844 22.5134375 28.65679687 23.421875 29.02734375 C34.85003161 33.33887556 48.01078303 31.8089895 59 27 C59.66 26.67 60.32 26.34 61 26 C61.14179687 25.36835937 61.28359375 24.73671875 61.4296875 24.0859375 C62 22 62 22 65.125 19.625 C70.71316738 15.18223339 73.1350082 8.35697268 76 2 C76.99 2 77.98 2 79 2 C79 3.32 79 4.64 79 6 C79.66 6 80.32 6 81 6 C78.25603039 16.39820064 72.78698928 24.02535643 63.4453125 29.49609375 C44.43509855 39.60630037 44.43509855 39.60630037 35 37 C33.89527344 36.76023438 32.79054687 36.52046875 31.65234375 36.2734375 C18.79340088 33.16349338 7.78762033 28.25331525 0 17 C-1.5 13.4375 -1.5 13.4375 -2 11 C-1.01 10.67 -0.02 10.34 1 10 C0.4740625 8.63875 0.4740625 8.63875 -0.0625 7.25 C-0.96468779 4.12241564 -1.13381507 2.94791919 0 0 Z " fill="#EDF4EE" transform="translate(17,94)"/>
<path d="M0 0 C1.56640625 1.36328125 1.56640625 1.36328125 1.9453125 3.828125 C2.31400171 6.60374739 2.31400171 6.60374739 5.03515625 7.91796875 C6.03546875 8.35367188 7.03578125 8.789375 8.06640625 9.23828125 C13.31207363 11.84414965 13.31207363 11.84414965 14.515625 14.30078125 C14.75390625 16.23828125 14.75390625 16.23828125 14.56640625 19.36328125 C13.57640625 19.85828125 13.57640625 19.85828125 12.56640625 20.36328125 C13.06140625 21.35328125 13.06140625 21.35328125 13.56640625 22.36328125 C12.24640625 22.36328125 10.92640625 22.36328125 9.56640625 22.36328125 C10.55640625 22.69328125 11.54640625 23.02328125 12.56640625 23.36328125 C12.23640625 24.68328125 11.90640625 26.00328125 11.56640625 27.36328125 C10.57640625 27.36328125 9.58640625 27.36328125 8.56640625 27.36328125 C9.22640625 28.35328125 9.88640625 29.34328125 10.56640625 30.36328125 C9.90640625 30.36328125 9.24640625 30.36328125 8.56640625 30.36328125 C8.56640625 31.02328125 8.56640625 31.68328125 8.56640625 32.36328125 C7.90640625 32.36328125 7.24640625 32.36328125 6.56640625 32.36328125 C6.23640625 33.02328125 5.90640625 33.68328125 5.56640625 34.36328125 C4.57640625 33.70328125 3.58640625 33.04328125 2.56640625 32.36328125 C3.22640625 33.68328125 3.88640625 35.00328125 4.56640625 36.36328125 C2.49086977 36.91675765 0.72274661 37.36328125 -1.43359375 37.36328125 C-1.43359375 38.02328125 -1.43359375 38.68328125 -1.43359375 39.36328125 C-3.74359375 39.36328125 -6.05359375 39.36328125 -8.43359375 39.36328125 C-8.43359375 37.38328125 -8.43359375 35.40328125 -8.43359375 33.36328125 C-9.42359375 33.36328125 -10.41359375 33.36328125 -11.43359375 33.36328125 C-11.43359375 35.34328125 -11.43359375 37.32328125 -11.43359375 39.36328125 C-12.42359375 39.03328125 -13.41359375 38.70328125 -14.43359375 38.36328125 C-13.77359375 38.36328125 -13.11359375 38.36328125 -12.43359375 38.36328125 C-12.43359375 37.04328125 -12.43359375 35.72328125 -12.43359375 34.36328125 C-13.09359375 34.36328125 -13.75359375 34.36328125 -14.43359375 34.36328125 C-14.43359375 33.37328125 -14.43359375 32.38328125 -14.43359375 31.36328125 C-11.13359375 31.36328125 -7.83359375 31.36328125 -4.43359375 31.36328125 C-4.39621094 30.62722656 -4.35882813 29.89117187 -4.3203125 29.1328125 C-3.94347486 23.53935963 -3.34324985 20.17053915 -0.43359375 15.36328125 C-0.17661011 12.3462933 -0.25594105 9.38337711 -0.43359375 6.36328125 C-1.09359375 6.36328125 -1.75359375 6.36328125 -2.43359375 6.36328125 C-2.76359375 4.71328125 -3.09359375 3.06328125 -3.43359375 1.36328125 C-4.09359375 1.36328125 -4.75359375 1.36328125 -5.43359375 1.36328125 C-5.76359375 2.68328125 -6.09359375 4.00328125 -6.43359375 5.36328125 C-7.09359375 4.04328125 -7.75359375 2.72328125 -8.43359375 1.36328125 C-9.42359375 1.36328125 -10.41359375 1.36328125 -11.43359375 1.36328125 C-11.43359375 3.34328125 -11.43359375 5.32328125 -11.43359375 7.36328125 C-12.42359375 7.03328125 -13.41359375 6.70328125 -14.43359375 6.36328125 C-14.43359375 5.04328125 -14.43359375 3.72328125 -14.43359375 2.36328125 C-15.09359375 2.36328125 -15.75359375 2.36328125 -16.43359375 2.36328125 C-16.76359375 3.35328125 -17.09359375 4.34328125 -17.43359375 5.36328125 C-18.42359375 4.70328125 -19.41359375 4.04328125 -20.43359375 3.36328125 C-19.51846056 1.07544828 -18.77874729 -0.37121603 -16.80859375 -1.88671875 C-10.52517539 -3.87095613 -5.74518204 -2.7320533 0 0 Z " fill="#F0F6F2" transform="translate(65.43359375,39.63671875)"/>
<path d="M0 0 C2.31 0 4.62 0 7 0 C6.01 0.495 6.01 0.495 5 1 C5 2.98 5 4.96 5 7 C5.99 7.020625 6.98 7.04125 8 7.0625 C13.23671325 7.7969171 16.49206154 11.27922032 20 15 C22.0625 17.75 22.0625 17.75 23 20 C22.67 20.99 22.34 21.98 22 23 C21.6596875 22.40832031 21.319375 21.81664063 20.96875 21.20703125 C17.53350257 15.60648158 14.20578864 11.51186683 8 9 C4.66288592 8.57751523 4.66288592 8.57751523 2 9 C1.67 9.66 1.34 10.32 1 11 C2.11375 10.87625 2.11375 10.87625 3.25 10.75 C6 11 6 11 8.125 12.625 C10.89596962 16.13489485 12.59103472 19.77310415 14 24 C12.68 23.34 11.36 22.68 10 22 C9.67 23.32 9.34 24.64 9 26 C6.03 26.33 3.06 26.66 0 27 C-3.15924854 22.83553601 -3.77443943 18.65464182 -4.5703125 13.62109375 C-4.93960118 11.36843282 -5.40909035 9.20295264 -6 7 C-3.36 7 -0.72 7 2 7 C2 5.02 2 3.04 2 1 C1.34 0.67 0.68 0.34 0 0 Z " fill="#094118" transform="translate(52,72)"/>
<path d="M0 0 C3.44335579 1.03300674 6.58356036 2.25774239 9.75 3.9375 C14.33013131 6.30745167 19.03934625 7.62204062 24 9 C24 12.3 24 15.6 24 19 C13.74559506 17.51580981 4.82139788 14.50134449 -4 9 C-3.35455571 5.51460083 -1.89865603 2.97180943 0 0 Z " fill="#EAF2EC" transform="translate(72,36)"/>
<path d="M0 0 C2.07530387 2.92079805 3 4.37546731 3 8 C-17.54794521 18 -17.54794521 18 -25 18 C-24.34 16.35 -23.68 14.7 -23 13 C-23.66 12.34 -24.32 11.68 -25 11 C-25 10.01 -25 9.02 -25 8 C-24.16597656 7.76925781 -23.33195312 7.53851563 -22.47265625 7.30078125 C-16.0659536 5.44408506 -10.42902423 3.47414578 -4.8046875 -0.14453125 C-3 -1 -3 -1 0 0 Z " fill="#E2ECE6" transform="translate(41,37)"/>
<path d="M0 0 C1.2077558 3.62326739 0.54311128 4.64146369 -1 8 C-3.76276177 7.47731534 -6.3260876 6.89130413 -9 6 C-10.8096818 5.88119646 -12.62396447 5.8248035 -14.4375 5.8125 C-15.38496094 5.79832031 -16.33242188 5.78414062 -17.30859375 5.76953125 C-20.0792524 6.00678649 -21.58666945 6.70366745 -24 8 C-24.99 8 -25.98 8 -27 8 C-27.99 5.69 -28.98 3.38 -30 1 C-19.999701 -4.96171671 -10.52434454 -6.24360916 0 0 Z " fill="#D9E8DF" transform="translate(70,31)"/>
<path d="M0 0 C1.03789581 1.64333504 2.03567924 3.31243867 3 5 C3.66 5.66 4.32 6.32 5 7 C1.55166676 9.05257931 -0.31661591 10.0632763 -4.375 9.6875 C-5.24125 9.460625 -6.1075 9.23375 -7 9 C-7 8.01 -7 7.02 -7 6 C-7.99 6.495 -7.99 6.495 -9 7 C-9.33 7.99 -9.66 8.98 -10 10 C-9.01 10.33 -8.02 10.66 -7 11 C-8 12 -8 12 -11.81640625 12.09765625 C-13.39846682 12.09098089 -14.98051159 12.07901875 -16.5625 12.0625 C-17.36880859 12.05798828 -18.17511719 12.05347656 -19.00585938 12.04882812 C-21.00393756 12.03700518 -23.00197783 12.01906914 -25 12 C-25 11.01 -25 10.02 -25 9 C-24.01 8.67 -23.02 8.34 -22 8 C-22 8.99 -22 9.98 -22 11 C-20.02 11 -18.04 11 -16 11 C-15.67 10.34 -15.34 9.68 -15 9 C-15 9.66 -15 10.32 -15 11 C-14.01 10.67 -13.02 10.34 -12 10 C-12 8.68 -12 7.36 -12 6 C-14.31 6 -16.62 6 -19 6 C-19 7.32 -19 8.64 -19 10 C-19.66 10 -20.32 10 -21 10 C-21 8.68 -21 7.36 -21 6 C-22.65 6 -24.3 6 -26 6 C-26 7.65 -26 9.3 -26 11 C-30.77576339 10.5317879 -34.04476345 9.75668002 -38 7 C-37.01 6.67 -36.02 6.34 -35 6 C-33.78130071 3.49552484 -33.78130071 3.49552484 -33 1 C-27.35637481 1.89784946 -27.35637481 1.89784946 -25.1875 2.51953125 C-15.62204997 4.62051403 -8.64498414 0 0 0 Z " fill="#ECF6EE" transform="translate(72,112)"/>
<path d="M0 0 C5.95396773 -0.74424597 9.4489707 1.48418337 14 5 C18.1240379 9.00948129 20.58720316 14.45282221 22 20 C21.66986015 22.92470044 21.39541104 24.50143825 19.5625 26.8125 C18 28 18 28 16 28 C16 28.99 16 29.98 16 31 C15.34 31 14.68 31 14 31 C13.98582031 30.24074219 13.97164062 29.48148438 13.95703125 28.69921875 C13.81416123 25.72211644 13.61066393 22.9190602 13 20 C10.6273026 17.99135641 10.6273026 17.99135641 8 17 C7.1875 14.8125 7.1875 14.8125 7 13 C8.65 13.99 10.3 14.98 12 16 C11.401875 15.113125 10.80375 14.22625 10.1875 13.3125 C8 10 8 10 6.625 7.25 C4.48662859 4.28917804 2.47679631 3.84988354 -1 3 C-0.67 2.01 -0.34 1.02 0 0 Z " fill="#F0F5F1" transform="translate(54,80)"/>
<path d="M0 0 C1.9375 0.3125 1.9375 0.3125 4 1 C4.99933821 3.99801463 5.13802314 6.02469467 5.16113281 9.15820312 C5.17074036 10.20939331 5.1803479 11.2605835 5.19024658 12.34362793 C5.19449646 13.47804321 5.19874634 14.6124585 5.203125 15.78125 C5.20882507 16.94628052 5.21452515 18.11131104 5.22039795 19.31164551 C5.22984778 21.77627656 5.23638186 24.24092025 5.24023438 26.70556641 C5.2499612 30.48492254 5.28099412 34.2637398 5.3125 38.04296875 C5.31902787 40.4348926 5.32427919 42.82682034 5.328125 45.21875 C5.3466452 46.92037292 5.3466452 46.92037292 5.36553955 48.65637207 C5.36253845 49.70756226 5.35953735 50.75875244 5.35644531 51.84179688 C5.36009094 52.76762573 5.36373657 53.69345459 5.36749268 54.64733887 C4.93567745 57.41178826 4.15304652 58.28421463 2 60 C1.27956268 56.08463176 0.86006011 52.34080121 0.79467773 48.36181641 C0.77473251 47.28114899 0.75478729 46.20048157 0.73423767 45.08706665 C0.70916893 43.3617421 0.70916893 43.3617421 0.68359375 41.6015625 C0.66281265 40.41146576 0.64203156 39.22136902 0.62062073 37.99520874 C0.55539905 34.20519615 0.49636766 30.41511609 0.4375 26.625 C0.39428874 24.05077436 0.35067362 21.47655547 0.30664062 18.90234375 C0.19974575 12.60163318 0.09792912 6.30085596 0 0 Z " fill="#1E552E" transform="translate(6,39)"/>
<path d="M0 0 C0.66 0 1.32 0 2 0 C2.27972656 0.78503906 2.55945312 1.57007812 2.84765625 2.37890625 C5.50634663 9.34621383 8.20031693 14.25328533 14 19 C12.125 23.75 12.125 23.75 11 26 C5.07591657 24.38434088 1.01976745 20.03874922 -2.30078125 15.04296875 C-4.81825355 10.40166527 -5.62533622 6.24529287 -6 1 C-4.7934375 1.0309375 -4.7934375 1.0309375 -3.5625 1.0625 C-1.06645115 1.29633621 -1.06645115 1.29633621 0 0 Z " fill="#E2F1E3" transform="translate(25,90)"/>
<path d="M0 0 C1.1446875 0.2784375 1.1446875 0.2784375 2.3125 0.5625 C5.08967375 1.22819173 5.08967375 1.22819173 8 0 C7.96519531 1.82724609 7.96519531 1.82724609 7.9296875 3.69140625 C7.9109165 5.31509799 7.89271773 6.93879642 7.875 8.5625 C7.85824219 9.36236328 7.84148437 10.16222656 7.82421875 10.98632812 C7.78292895 16.04432807 8.47277672 20.13197581 10 25 C10.21794764 27.71562756 10.0958736 30.26760245 10 33 C9.67 33 9.34 33 9 33 C8.67 30.69 8.34 28.38 8 26 C6.7058258 27.22880216 6.7058258 27.22880216 5 30 C3.68 29.34 2.36 28.68 1 28 C1 25 1 22 1 19 C0.835 18.030625 0.67 17.06125 0.5 16.0625 C-0.31384087 10.74387799 -0.07928369 5.36486307 0 0 Z " fill="#729977" transform="translate(85,59)"/>
<path d="M0 0 C0 0.33 0 0.66 0 1 C-3.3 1 -6.6 1 -10 1 C-10 1.66 -10 2.32 -10 3 C-13.3 4.32 -16.6 5.64 -20 7 C-19.40138258 9.35171131 -18.73075648 11.6859378 -18 14 C-17.34 14.33 -16.68 14.66 -16 15 C-16.99 15.33 -17.98 15.66 -19 16 C-19.66 14.68 -20.32 13.36 -21 12 C-23.99645602 12.90590531 -26.64522693 13.77946539 -29.3125 15.4375 C-34.27056253 18.32009449 -39.2624171 20 -45 20 C-44.2236068 23.0745356 -44.2236068 23.0745356 -42 25 C-43.485 27.475 -43.485 27.475 -45 30 C-44.21351074 29.73521851 -44.21351074 29.73521851 -43.41113281 29.46508789 C-41.02461992 28.66263481 -38.63732103 27.86254547 -36.25 27.0625 C-35.0125 26.64581055 -35.0125 26.64581055 -33.75 26.22070312 C-32.95078125 25.95322266 -32.1515625 25.68574219 -31.328125 25.41015625 C-30.5949707 25.16402588 -29.86181641 24.91789551 -29.10644531 24.66430664 C-27.08490527 24.02677645 -25.06152574 23.49093646 -23 23 C-23 25 -23 27 -23 29 C-24.8871875 28.9071875 -24.8871875 28.9071875 -26.8125 28.8125 C-31.66182122 28.78951743 -35.81997326 29.89051787 -40.421875 31.34375 C-43.05499936 32.01399984 -45.29545547 32.11674293 -48 32 C-47.9278125 31.32453125 -47.855625 30.6490625 -47.78125 29.953125 C-47.6884375 29.06109375 -47.595625 28.1690625 -47.5 27.25 C-47.4071875 26.36828125 -47.314375 25.4865625 -47.21875 24.578125 C-46.94363687 21.76695165 -46.94363687 21.76695165 -47 18 C-45.37191406 17.51080078 -45.37191406 17.51080078 -43.7109375 17.01171875 C-42.26553999 16.57059094 -40.82023222 16.12916904 -39.375 15.6875 C-38.66214844 15.47416016 -37.94929688 15.26082031 -37.21484375 15.04101562 C-32.89754338 13.71413891 -29.03261296 12.06474628 -25 10 C-24.34 10 -23.68 10 -23 10 C-23 8.68 -23 7.36 -23 6 C-15.15103405 1.39746499 -9.14803051 -0.97242844 0 0 Z " fill="#3A6648" transform="translate(61,25)"/>
<path d="M0 0 C2.76276177 0.52268466 5.3260876 1.10869587 8 2 C12.67425664 2.25968092 15.71763346 1.73609454 20 0 C22.1875 0.125 22.1875 0.125 24 1 C25.375 2.6875 25.375 2.6875 26 5 C25.54367188 6.31291016 25.54367188 6.31291016 25.078125 7.65234375 C23.86781251 11.41045175 23.55687737 14.96463649 23.375 18.875 C23.33632812 19.56335938 23.29765625 20.25171875 23.2578125 20.9609375 C23.16451834 22.64023246 23.08121762 24.32007767 23 26 C20.54593984 23.54593984 20.61618785 22.4528512 20.3125 19.0625 C20.22613281 18.18722656 20.13976562 17.31195313 20.05078125 16.41015625 C20 14 20 14 21 11 C19.85724609 10.74476562 19.85724609 10.74476562 18.69140625 10.484375 C12.08735803 8.93436119 6.07626488 7.02278834 0 4 C0 2.68 0 1.36 0 0 Z " fill="#F0F6F1" transform="translate(77,33)"/>
<path d="M0 0 C0.66 1.32 1.32 2.64 2 4 C1.67 4 1.34 4 1 4 C1.18464366 8.34184202 1.18464366 8.34184202 3 12 C4.51928038 12.07179964 6.04167482 12.08392007 7.5625 12.0625 C8.38878906 12.05347656 9.21507812 12.04445313 10.06640625 12.03515625 C10.70449219 12.02355469 11.34257813 12.01195312 12 12 C12.33 11.34 12.66 10.68 13 10 C14.32 10.66 15.64 11.32 17 12 C17.18393122 17.42597111 17.09708587 19.75728532 15 25 C11.37 25 7.74 25 4 25 C2.32531393 21.65062787 1.76612275 20.39044263 1.5 16.9375 C1.29124511 12.9542797 1.29124511 12.9542797 -1 10 C-1.23046875 7.7734375 -1.23046875 7.7734375 -1.1875 5.375 C-1.17783203 4.18003906 -1.17783203 4.18003906 -1.16796875 2.9609375 C-1 1 -1 1 0 0 Z " fill="#63886C" transform="translate(46,46)"/>
<path d="M0 0 C-0.33 0.99 -0.66 1.98 -1 3 C-1.99 3.474375 -2.98 3.94875 -4 4.4375 C-7.13889061 5.65795597 -7.13889061 5.65795597 -7.875 8.1875 C-7.91625 8.785625 -7.9575 9.38375 -8 10 C-8.66 9.67 -9.32 9.34 -10 9 C-9.84152588 10.06025391 -9.68305176 11.12050781 -9.51977539 12.21289062 C-8.80092057 17.99286663 -8.76889065 23.7759821 -8.68359375 29.59375 C-8.66281265 30.78101685 -8.64203156 31.96828369 -8.62062073 33.19152832 C-8.55556145 36.96096352 -8.4964441 40.73046471 -8.4375 44.5 C-8.39427325 47.06511082 -8.35065767 49.63021512 -8.30664062 52.1953125 C-8.19992509 58.46347317 -8.09807996 64.73169857 -8 71 C-11.3402907 64.62234362 -11.10843062 58.3548387 -10.9921875 51.32421875 C-10.97466727 49.42513559 -10.95775937 47.5260467 -10.94140625 45.62695312 C-10.91051921 42.65812055 -10.87503252 39.68957983 -10.82861328 36.72094727 C-10.78597674 33.83866883 -10.76275126 30.9567283 -10.7421875 28.07421875 C-10.71425613 26.76127083 -10.71425613 26.76127083 -10.6857605 25.42179871 C-10.66159859 19.54027698 -11.49949934 14.371679 -14 9 C-14.66 8.34 -15.32 7.68 -16 7 C-16 6.01 -16 5.02 -16 4 C-10.95819178 -0.88089944 -6.61716268 -1.53612705 0 0 Z " fill="#547D60" transform="translate(16,30)"/>
<path d="M0 0 C0.33 0 0.66 0 1 0 C1 1.65 1 3.3 1 5 C1.66 5 2.32 5 3 5 C3.66 3.68 4.32 2.36 5 1 C5 2.65 5 4.3 5 6 C6.32 5.01 7.64 4.02 9 3 C8.88541307 4.43836751 8.75790884 5.87570966 8.625 7.3125 C8.55539063 8.11300781 8.48578125 8.91351563 8.4140625 9.73828125 C8 12 8 12 6 15 C5.34 14.67 4.68 14.34 4 14 C3.67 14.33 3.34 14.66 3 15 C0.8203125 15.23828125 0.8203125 15.23828125 -1.875 15.3125 C-3.20144531 15.36857422 -3.20144531 15.36857422 -4.5546875 15.42578125 C-7 15 -7 15 -8.80859375 13.18359375 C-10.35777321 10.34427796 -10.21707033 8.18369822 -10 5 C-7.525 6.485 -7.525 6.485 -5 8 C-5.33 6.35 -5.66 4.7 -6 3 C-3.525 3.99 -3.525 3.99 -1 5 C-0.67 3.35 -0.34 1.7 0 0 Z " fill="#F0F6F0" transform="translate(56,44)"/>
<path d="M0 0 C-0.33 1.32 -0.66 2.64 -1 4 C-1.66 4 -2.32 4 -3 4 C-2.67 6.31 -2.34 8.62 -2 11 C-1.01 10.34 -0.02 9.68 1 9 C0.58649697 14.27216362 -0.17034992 17.27385398 -4 21 C-8.8255291 24.18046236 -12.38809785 24.5430873 -18 24 C-20.5 22.5 -20.5 22.5 -22 21 C-21.34 20.01 -20.68 19.02 -20 18 C-21.98 18.33 -23.96 18.66 -26 19 C-25.67 17.68 -25.34 16.36 -25 15 C-20.25 15.875 -20.25 15.875 -18 17 C-13.54139248 17.60251453 -10.14628917 17.83874817 -6.4375 15.125 C-4.66027963 11.26147745 -4.80722792 8.39234503 -5.15234375 4.20703125 C-5.10207031 3.47871094 -5.05179688 2.75039062 -5 2 C-2 0 -2 0 0 0 Z " fill="#3C6849" transform="translate(36,12)"/>
<path d="M0 0 C0.99 0.33 1.98 0.66 3 1 C3 1.99 3 2.98 3 4 C3.66 4.33 4.32 4.66 5 5 C5 5.66 5 6.32 5 7 C4.236875 7.20625 3.47375 7.4125 2.6875 7.625 C-0.82229103 9.42070704 -1.52599781 11.43136312 -3 15 C-2.34 15.33 -1.68 15.66 -1 16 C-0.67 15.34 -0.34 14.68 0 14 C0.99 13.34 1.98 12.68 3 12 C4.00168531 10.05167065 4.00168531 10.05167065 4.6875 7.875 C4.93886719 7.15054688 5.19023438 6.42609375 5.44921875 5.6796875 C5.63097656 5.12539062 5.81273438 4.57109375 6 4 C6.66 4 7.32 4 8 4 C6.50525267 12.98421814 1.18954009 20.47999746 -6 26 C-6.99 26 -7.98 26 -9 26 C-10.8125 23.75 -10.8125 23.75 -12 21 C-11.26351699 18.05406795 -9.83289075 16.84168597 -7.625 14.75 C-3.57717061 10.50941682 -1.27168006 5.70984346 0 0 Z " fill="#BFD3BF" transform="translate(84,90)"/>
<path d="M0 0 C0.598125 0.165 1.19625 0.33 1.8125 0.5 C4.11344336 1.1114124 4.11344336 1.1114124 7 1 C6.98839844 1.74765625 6.97679687 2.4953125 6.96484375 3.265625 C6.95582031 4.25046875 6.94679688 5.2353125 6.9375 6.25 C6.92589844 7.22453125 6.91429687 8.1990625 6.90234375 9.203125 C6.89314511 11.93523973 6.89314511 11.93523973 7.59765625 14.23828125 C7.73042969 14.81964844 7.86320312 15.40101562 8 16 C7.505 16.639375 7.01 17.27875 6.5 17.9375 C4.68913523 19.92039984 4.68913523 19.92039984 5.375 22.5 C5.58125 23.325 5.7875 24.15 6 25 C5.5625 27.3125 5.5625 27.3125 5 29 C4.01 29 3.02 29 2 29 C1.22500252 25.9000101 0.97352212 23.11104429 1.0625 19.9375 C1.00533151 16.33588491 0.8111219 14.94307309 -1 12 C-1 9.59777717 -0.74511183 7.2648403 -0.5 4.875 C-0.4071875 3.96492188 -0.314375 3.05484375 -0.21875 2.1171875 C-0.1465625 1.41851562 -0.074375 0.71984375 0 0 Z " fill="#759380" transform="translate(19,59)"/>
<path d="M0 0 C0.99 0.33 1.98 0.66 3 1 C3 4.96 3 8.92 3 13 C3.99 13 4.98 13 6 13 C5.814375 12.2575 5.62875 11.515 5.4375 10.75 C5.00493205 8.03100146 5.00286729 6.53815599 6 4 C6.66 3.67 7.32 3.34 8 3 C8.66666667 7.66666667 9.33333333 12.33333333 10 17 C3.25 18.125 3.25 18.125 1 17 C3.62821021 27.42737059 7.37820911 34.44048186 16 41 C15.34 41.66 14.68 42.32 14 43 C6.25759428 37.11577165 0.83647381 29.73331122 -1 20 C-1.18807142 16.23857169 -1.19055198 13.57165595 0 10 C0 9.01 0 8.02 0 7 C0 4.66666667 0 2.33333333 0 0 Z " fill="#175519" transform="translate(18,74)"/>
<path d="M0 0 C5.1423301 0.03207274 9.24433985 3.15023284 13 6.4375 C13 7.0975 13 7.7575 13 8.4375 C10.02588876 9.67671302 7.14737182 10.73808404 4 11.4375 C3.7525 10.633125 3.505 9.82875 3.25 9 C2.2729616 6.35014026 2.2729616 6.35014026 0.1875 5.5 C-2.07770347 5.28859071 -2.07770347 5.28859071 -4.3125 6.375 C-7.75958308 7.73780029 -10.31771928 7.76627506 -14 7.4375 C-16.9375 5.9375 -16.9375 5.9375 -19 4.4375 C-15.59310318 2.16623545 -13.89736441 2.10277244 -9.875 1.875 C-5.96029937 1.6449996 -3.61861025 0.52771399 0 0 Z " fill="#235933" transform="translate(99,28.5625)"/>
<path d="M0 0 C0.33 0 0.66 0 1 0 C1.23074219 0.83402344 1.46148438 1.66804688 1.69921875 2.52734375 C3.55010551 8.91400044 5.49220994 14.5174234 9.14453125 20.09765625 C10.22282334 22.49550212 9.75021567 23.54521266 9 26 C9.33 26.66 9.66 27.32 10 28 C3.86558565 25.50913629 1.33817012 19.2748892 -1.875 13.8125 C-3.17551512 10.56121221 -3.44318708 8.47163215 -3 5 C-1.5625 2.125 -1.5625 2.125 0 0 Z " fill="#2B5F3B" transform="translate(11,94)"/>
<path d="M0 0 C3.41524245 1.87072734 3.41524245 1.87072734 4.4375 4.9375 C4.47875 5.72125 4.52 6.505 4.5625 7.3125 C5.2225 7.9725 5.8825 8.6325 6.5625 9.3125 C5.5725 9.3125 4.5825 9.3125 3.5625 9.3125 C3.2325 10.6325 2.9025 11.9525 2.5625 13.3125 C2.2325 11.3325 1.9025 9.3525 1.5625 7.3125 C0.9025 7.3125 0.2425 7.3125 -0.4375 7.3125 C-0.7675 5.6625 -1.0975 4.0125 -1.4375 2.3125 C-2.0975 2.3125 -2.7575 2.3125 -3.4375 2.3125 C-3.7675 3.6325 -4.0975 4.9525 -4.4375 6.3125 C-5.0975 4.9925 -5.7575 3.6725 -6.4375 2.3125 C-7.4275 2.3125 -8.4175 2.3125 -9.4375 2.3125 C-9.4375 4.2925 -9.4375 6.2725 -9.4375 8.3125 C-10.4275 7.9825 -11.4175 7.6525 -12.4375 7.3125 C-12.4375 5.9925 -12.4375 4.6725 -12.4375 3.3125 C-13.0975 3.3125 -13.7575 3.3125 -14.4375 3.3125 C-14.7675 4.3025 -15.0975 5.2925 -15.4375 6.3125 C-16.4275 5.6525 -17.4175 4.9925 -18.4375 4.3125 C-17.52236681 2.02466703 -16.78265354 0.57800272 -14.8125 -0.9375 C-9.49858118 -2.61557963 -5.01160032 -2.22237932 0 0 Z " fill="#D8E9DD" transform="translate(63.4375,38.6875)"/>
<path d="M0 0 C0.061875 0.61875 0.12375 1.2375 0.1875 1.875 C0.79539092 4.21127618 0.79539092 4.21127618 3.15234375 4.9765625 C4.09207031 5.31429687 5.03179687 5.65203125 6 6 C7.01835938 6.4021875 8.03671875 6.804375 9.0859375 7.21875 C14.67521797 9.3960469 20.18558449 11.51259138 26 13 C25.9278125 13.60328125 25.855625 14.2065625 25.78125 14.828125 C25.64203125 16.02695312 25.64203125 16.02695312 25.5 17.25 C25.36078125 18.43335938 25.36078125 18.43335938 25.21875 19.640625 C24.93845381 22.26890397 24.93845381 22.26890397 25 26 C20.35984422 25.5580804 15.90625943 25.03716881 11.375 23.9375 C7.46878698 23.01071835 4.00494646 22.82957675 0 23 C0 22.67 0 22.34 0 22 C0.78375 21.87625 1.5675 21.7525 2.375 21.625 C5.14057822 21.20882007 5.14057822 21.20882007 7 19 C12.28 20.65 17.56 22.3 23 24 C22.67 21.69 22.34 19.38 22 17 C22.33 16.01 22.66 15.02 23 14 C22.05125 13.9175 21.1025 13.835 20.125 13.75 C12.46857199 12.64958221 5.53326292 8.97676874 -1 5 C-0.67 3.35 -0.34 1.7 0 0 Z " fill="#41664C" transform="translate(73,31)"/>
<path d="M0 0 C5.75 -0.125 5.75 -0.125 8 1 C8.4140625 3.72265625 8.4140625 3.72265625 8.625 7.0625 C8.69976562 8.16722656 8.77453125 9.27195312 8.8515625 10.41015625 C8.90054688 11.26480469 8.94953125 12.11945313 9 13 C5.13516607 14.70182603 3.11574366 15.17592676 -1 14 C-0.67 13.34 -0.34 12.68 0 12 C-1.32 11.34 -2.64 10.68 -4 10 C-2.35 10 -0.7 10 1 10 C0.67 6.7 0.34 3.4 0 0 Z " fill="#ECF3ED" transform="translate(58,99)"/>
<path d="M0 0 C2.31 0 4.62 0 7 0 C6.01 0.495 6.01 0.495 5 1 C5 2.98 5 4.96 5 7 C5.99 7.020625 6.98 7.04125 8 7.0625 C13.23671325 7.7969171 16.49206154 11.27922032 20 15 C22.0625 17.75 22.0625 17.75 23 20 C22.67 20.99 22.34 21.98 22 23 C21.6596875 22.40832031 21.319375 21.81664063 20.96875 21.20703125 C17.53350257 15.60648158 14.20578864 11.51186683 8 9 C4.66288592 8.57751523 4.66288592 8.57751523 2 9 C1.34 10.65 0.68 12.3 0 14 C0.66 14 1.32 14 2 14 C1.67 14.66 1.34 15.32 1 16 C0.34 15.67 -0.32 15.34 -1 15 C-1 14.34 -1 13.68 -1 13 C-1.639375 12.7525 -2.27875 12.505 -2.9375 12.25 C-5 11 -5 11 -5.75 8.875 C-5.8325 8.25625 -5.915 7.6375 -6 7 C-3.36 7 -0.72 7 2 7 C2 5.02 2 3.04 2 1 C1.34 0.67 0.68 0.34 0 0 Z " fill="#1F4F2E" transform="translate(52,72)"/>
<path d="M0 0 C0 3.80949043 -1.47808681 5.31625191 -3.953125 8.0859375 C-9.0411051 12.84378149 -15.01396267 17.01462765 -22 18 C-21.34 17.67 -20.68 17.34 -20 17 C-19.34786708 14.97536745 -19.34786708 14.97536745 -19 13 C-18.67 13.66 -18.34 14.32 -18 15 C-17.34 15 -16.68 15 -16 15 C-16.33 13.35 -16.66 11.7 -17 10 C-15.75627811 9.01287122 -14.50472782 8.03560095 -13.25 7.0625 C-12.55390625 6.51722656 -11.8578125 5.97195312 -11.140625 5.41015625 C-9.01234493 4.00813234 -7.51416033 3.33275651 -5 3 C-4.34 3.33 -3.68 3.66 -3 4 C-3.33 3.01 -3.66 2.02 -4 1 C-2.68 0.67 -1.36 0.34 0 0 Z " fill="#265B38" transform="translate(97,113)"/>
<path d="M0 0 C2.31 0 4.62 0 7 0 C7 1.32 7 2.64 7 4 C6.01 4.495 6.01 4.495 5 5 C5.33 5.66 5.66 6.32 6 7 C4.68 7 3.36 7 2 7 C2.99 7.33 3.98 7.66 5 8 C4.67 9.32 4.34 10.64 4 12 C3.01 12 2.02 12 1 12 C1.99 13.485 1.99 13.485 3 15 C2.34 15 1.68 15 1 15 C1 15.66 1 16.32 1 17 C0.34 17 -0.32 17 -1 17 C-1.33 17.66 -1.66 18.32 -2 19 C-3.32 17.68 -4.64 16.36 -6 15 C-5.1875 12.0625 -5.1875 12.0625 -4 9 C-3.01 8.67 -2.02 8.34 -1 8 C-0.67 5.36 -0.34 2.72 0 0 Z " fill="#92A69A" transform="translate(73,55)"/>
<path d="M0 0 C-0.33 10.89 -0.66 21.78 -1 33 C-2.485 33.495 -2.485 33.495 -4 34 C-4.02473064 29.78247482 -4.04287453 25.56498814 -4.05493164 21.34741211 C-4.05995842 19.91283432 -4.06678079 18.47826164 -4.07543945 17.04370117 C-4.08757752 14.98094418 -4.09324486 12.91825496 -4.09765625 10.85546875 C-4.10289307 9.61434326 -4.10812988 8.37321777 -4.11352539 7.09448242 C-4 4 -4 4 -3 1 C-1 0 -1 0 0 0 Z " fill="#014214" transform="translate(105,40)"/>
<path d="M0 0 C5.68502535 1.64566523 10.76681636 4.29032784 16 7 C16 7.66 16 8.32 16 9 C15.01 9 14.02 9 13 9 C12.67 10.32 12.34 11.64 12 13 C11.34 13 10.68 13 10 13 C10.33 11.35 10.66 9.7 11 8 C8.36 7.34 5.72 6.68 3 6 C2.67 7.65 2.34 9.3 2 11 C0.02 10.34 -1.96 9.68 -4 9 C-3.35455571 5.51460083 -1.89865603 2.97180943 0 0 Z " fill="#EDF4F0" transform="translate(72,36)"/>
<path d="M0 0 C0.99 0.33 1.98 0.66 3 1 C3.21715569 5.50170202 3.41398879 10.00366157 3.59204102 14.50708008 C3.65546794 16.03889699 3.72444183 17.57049468 3.79907227 19.10180664 C3.90539597 21.30320678 3.99173827 23.50462487 4.07421875 25.70703125 C4.11157639 26.39150833 4.14893402 27.07598541 4.18742371 27.78120422 C4.33850449 32.55999359 4.33850449 32.55999359 2.49536133 34.95581055 C2.00189209 35.30039307 1.50842285 35.64497559 1 36 C0.14083904 31.55852431 -0.11697565 27.37230176 -0.09765625 22.8515625 C-0.09553383 21.86547501 -0.09553383 21.86547501 -0.09336853 20.85946655 C-0.08781762 18.78126269 -0.07527465 16.70317073 -0.0625 14.625 C-0.05747864 13.20703282 -0.05291685 11.78906393 -0.04882812 10.37109375 C-0.03786437 6.91402678 -0.02063421 3.45702433 0 0 Z " fill="#014113" transform="translate(7,63)"/>
<path d="M0 0 C1.70884005 1.62339805 3.37446717 3.29319053 5 5 C5 5.66 5 6.32 5 7 C2.92446352 7.5534764 1.15634036 8 -1 8 C-1 8.66 -1 9.32 -1 10 C-3.31 10 -5.62 10 -8 10 C-8 8.02 -8 6.04 -8 4 C-8.99 4 -9.98 4 -11 4 C-11 5.98 -11 7.96 -11 10 C-11.99 9.67 -12.98 9.34 -14 9 C-13.34 9 -12.68 9 -12 9 C-12 7.68 -12 6.36 -12 5 C-12.66 5 -13.32 5 -14 5 C-14 4.01 -14 3.02 -14 2 C-13.07316406 1.93941406 -12.14632812 1.87882812 -11.19140625 1.81640625 C-9.39509766 1.69072266 -9.39509766 1.69072266 -7.5625 1.5625 C-5.77005859 1.44068359 -5.77005859 1.44068359 -3.94140625 1.31640625 C-1.11429756 1.32343886 -1.11429756 1.32343886 0 0 Z " fill="#D5E2D8" transform="translate(65,69)"/>
<path d="M0 0 C0.99 0 1.98 0 3 0 C3.66 0.99 4.32 1.98 5 3 C5.33 2.01 5.66 1.02 6 0 C6.66 0 7.32 0 8 0 C9.04625409 1.29735507 10.04701223 2.63266972 11 4 C11.33 4.33 11.66 4.66 12 5 C12.203125 6.9609375 12.203125 6.9609375 12.25 9.375 C12.27578125 10.16648437 12.3015625 10.95796875 12.328125 11.7734375 C12 14 12 14 9 17 C9.33 14.03 9.66 11.06 10 8 C8.02 8.99 8.02 8.99 6 10 C6 8.68 6 7.36 6 6 C5.67 6.66 5.34 7.32 5 8 C4.34 8 3.68 8 3 8 C2.67 7.01 2.34 6.02 2 5 C1.67 5.99 1.34 6.98 1 8 C-0.32 7.67 -1.64 7.34 -3 7 C-3 8.32 -3 9.64 -3 11 C-3.99 10.67 -4.98 10.34 -6 10 C-5.67 7.03 -5.34 4.06 -5 1 C-4.34 1 -3.68 1 -3 1 C-2.814375 1.9590625 -2.814375 1.9590625 -2.625 2.9375 C-2.315625 3.9584375 -2.315625 3.9584375 -2 5 C-1.34 5.33 -0.68 5.66 0 6 C0 4.02 0 2.04 0 0 Z " fill="#829B81" transform="translate(54,41)"/>
<path d="M0 0 C5.4146145 0.74318238 10.70934701 1.62834922 16 3 C15.01 3.495 15.01 3.495 14 4 C12.86649466 6.01669827 12.86649466 6.01669827 12 8 C6.47324097 7.36145015 1.37632649 6.06306646 -3.9375 4.4375 C-4.71673828 4.20353516 -5.49597656 3.96957031 -6.29882812 3.72851562 C-8.20057187 3.15682579 -10.10048226 2.57904309 -12 2 C-7.37411598 0.70797196 -4.59980309 1.69672246 0 3 C0 2.01 0 1.02 0 0 Z " fill="#336344" transform="translate(45,129)"/>
<path d="M0 0 C0.66 0.99 1.32 1.98 2 3 C1.34 3 0.68 3 0 3 C-0.33 3.99 -0.66 4.98 -1 6 C-0.67 4.02 -0.34 2.04 0 0 Z M3 0 C3.99 0.33 4.98 0.66 6 1 C5.8563501 1.77206787 5.7127002 2.54413574 5.56469727 3.33959961 C3.77244693 14.12665268 3.80198625 24.6590838 3.9375 35.5625 C3.96524994 38.27016999 3.98990423 40.97778416 4.00868225 43.68553162 C4.02081289 45.35506659 4.03828837 47.02457428 4.06199646 48.69398499 C4.09585524 52.60956856 3.97570942 56.17508522 3 60 C2.67 60 2.34 60 2 60 C1.97687179 52.32463373 1.95908247 44.64927104 1.94818783 36.97387791 C1.94296005 33.41022578 1.93586431 29.84659743 1.92456055 26.28295898 C1.91165824 22.18993903 1.90677094 18.0969442 1.90234375 14.00390625 C1.89718246 12.71851456 1.89202118 11.43312286 1.88670349 10.10877991 C1.88662796 8.92763107 1.88655243 7.74648224 1.88647461 6.52954102 C1.884254 5.48363297 1.88203339 4.43772491 1.87974548 3.36012268 C2 1 2 1 3 0 Z " fill="#809F88" transform="translate(102,38)"/>
<path d="M0 0 C0.33 0 0.66 0 1 0 C0.94199219 0.66386719 0.88398437 1.32773438 0.82421875 2.01171875 C0.59111797 6.57383395 0.48512756 9.19551181 3 13.125 C7.12153463 15.70095914 9.18468737 15.53503474 14 15 C15.34090759 14.34870203 16.67592331 13.68486725 18 13 C20.75 13.375 20.75 13.375 23 14 C18.16964821 17.22023452 13.07165171 17.22956472 7.40234375 17.71875 C5.01473213 17.92283042 5.01473213 17.92283042 2.8671875 18.66796875 C2.25101562 18.77753906 1.63484375 18.88710938 1 19 C-1.8125 16.8125 -1.8125 16.8125 -4 14 C-3.8125 11.6875 -3.8125 11.6875 -3 10 C-2.34 10 -1.68 10 -1 10 C-0.67 6.7 -0.34 3.4 0 0 Z " fill="#2F6440" transform="translate(79,14)"/>
<path d="M0 0 C0.78375 0.268125 1.5675 0.53625 2.375 0.8125 C4.169375 1.4003125 4.169375 1.4003125 6 2 C6.72703125 2.25265625 7.4540625 2.5053125 8.203125 2.765625 C14.77656271 4.92849805 21.10308644 5.65633936 28 6 C28 6.33 28 6.66 28 7 C27.030625 7.12375 26.06125 7.2475 25.0625 7.375 C23.5465625 7.684375 23.5465625 7.684375 22 8 C21.67 8.66 21.34 9.32 21 10 C13.38898472 9.02125692 6.83102288 7.5535119 0 4 C0 2.68 0 1.36 0 0 Z " fill="#D8E6DA" transform="translate(31,120)"/>
<path d="M0 0 C5.75 1.875 5.75 1.875 8 3 C7.67 4.65 7.34 6.3 7 8 C7.66 8 8.32 8 9 8 C9.33 6.68 9.66 5.36 10 4 C10.99 4.33 11.98 4.66 13 5 C12.67 5.99 12.34 6.98 12 8 C11.34 8 10.68 8 10 8 C9.67 8.99 9.34 9.98 9 11 C7.53932801 10.54917531 6.08151968 10.08906463 4.625 9.625 C3.40683594 9.24214844 3.40683594 9.24214844 2.1640625 8.8515625 C0 8 0 8 -2 6 C-1.34 4.02 -0.68 2.04 0 0 Z " fill="#A7BBAE" transform="translate(75,41)"/>
<path d="M0 0 C3.25511789 0.56122722 4.99840071 1.33120095 7 4 C8.33905258 8.26062184 8.07494362 12.5783266 8 17 C7.67 17 7.34 17 7 17 C6.67 14.69 6.34 12.38 6 10 C4.7058258 11.22880216 4.7058258 11.22880216 3 14 C1.68 13.34 0.36 12.68 -1 12 C-1 3 -1 3 0 0 Z " fill="#B0CAB2" transform="translate(87,75)"/>
<path d="M0 0 C2.97 0.99 5.94 1.98 9 3 C8.67 6.63 8.34 10.26 8 14 C7.34 14 6.68 14 6 14 C5.67 14.66 5.34 15.32 5 16 C4 15 4 15 3.6875 11.125 C3.32153149 7.63292767 3.32153149 7.63292767 0.9375 5 C0.298125 4.67 -0.34125 4.34 -1 4 C-0.67 2.68 -0.34 1.36 0 0 Z " fill="#174E27" transform="translate(70,10)"/>
<path d="M0 0 C0.33 0.99 0.66 1.98 1 3 C1.99 3.33 2.98 3.66 4 4 C-1.625 7 -1.625 7 -5 7 C-5.598125 7.474375 -6.19625 7.94875 -6.8125 8.4375 C-9.50960903 10.36400645 -11.74378965 10.6299761 -15 11 C-14.34 9.02 -13.68 7.04 -13 5 C-11.68 5.99 -10.36 6.98 -9 8 C-9.33 6.68 -9.66 5.36 -10 4 C-9.0925 3.71125 -8.185 3.4225 -7.25 3.125 C-4.67797092 2.23468224 -2.38653234 1.28505587 0 0 Z " fill="#93A89A" transform="translate(34,42)"/>
<path d="M0 0 C0.33 0.66 0.66 1.32 1 2 C1.66 2 2.32 2 3 2 C3 2.66 3 3.32 3 4 C-1.13410434 6.00441422 -4.42495281 6.40848636 -9 6 C-11.9375 4.5 -11.9375 4.5 -14 3 C-10.71508627 0.81005752 -9.16904361 0.64722661 -5.3125 0.375 C-4.31863281 0.30023437 -3.32476562 0.22546875 -2.30078125 0.1484375 C-1.54152344 0.09945313 -0.78226563 0.05046875 0 0 Z " fill="#164E28" transform="translate(94,30)"/>
<path d="M0 0 C2.97 0.495 2.97 0.495 6 1 C5.814375 1.5775 5.62875 2.155 5.4375 2.75 C4.95976454 5.20692525 5.24270636 6.64397534 6 9 C1.32538149 9.32613618 -1.16674383 8.70582788 -5 6 C-4.01 5.67 -3.02 5.34 -2 5 C-0.78130071 2.49552484 -0.78130071 2.49552484 0 0 Z " fill="#ECF3EC" transform="translate(39,113)"/>
<path d="M0 0 C1.625 1.5 1.625 1.5 3 3 C3.66 2.67 4.32 2.34 5 2 C5 2.99 5 3.98 5 5 C2.58967749 6.20216334 0.17316521 7.38674978 -2.25 8.5625 C-2.93191406 8.90474609 -3.61382812 9.24699219 -4.31640625 9.59960938 C-8.02168909 11.38030356 -10.07871478 12.3058334 -14 11 C-13.01 10.34 -12.02 9.68 -11 9 C-10.67 8.34 -10.34 7.68 -10 7 C-9.01 7.66 -8.02 8.32 -7 9 C-6.67 8.34 -6.34 7.68 -6 7 C-3.9375 6.375 -3.9375 6.375 -2 6 C-2.66 5.67 -3.32 5.34 -4 5 C-4 3.68 -4 2.36 -4 1 C-2 0 -2 0 0 0 Z " fill="#E7F1EA" transform="translate(39,40)"/>
<path d="M0 0 C0.99 0.33 1.98 0.66 3 1 C3 1.99 3 2.98 3 4 C3.66 4.33 4.32 4.66 5 5 C5 5.66 5 6.32 5 7 C4.2575 7.144375 3.515 7.28875 2.75 7.4375 C-1.43847648 9.81731618 -2.38452846 13.6138594 -4 18 C-3.01 18.33 -2.02 18.66 -1 19 C-2.9375 19.5625 -2.9375 19.5625 -5 20 C-6 19 -6 19 -6.25 16.1875 C-5.96149284 12.50903368 -5.19351199 11.84344147 -3 9 C-1.85825848 6.04278659 -0.91422195 3.0344388 0 0 Z " fill="#A6C0AB" transform="translate(84,90)"/>
<path d="M0 0 C0.99 0.33 1.98 0.66 3 1 C3 1.66 3 2.32 3 3 C5.97 3.495 5.97 3.495 9 4 C9 6.31 9 8.62 9 11 C6.625 11.1875 6.625 11.1875 4 11 C3.34 10.01 2.68 9.02 2 8 C1.67 8.66 1.34 9.32 1 10 C-0.1577506 6.52674819 -0.06866652 3.63932552 0 0 Z " fill="#568166" transform="translate(48,84)"/>
<path d="M0 0 C-0.33 1.32 -0.66 2.64 -1 4 C-1.66 4 -2.32 4 -3 4 C-2.67 6.31 -2.34 8.62 -2 11 C-1.01 10.34 -0.02 9.68 1 9 C0.38461538 15.52307692 0.38461538 15.52307692 -1.5625 17.9375 C-2.036875 18.288125 -2.51125 18.63875 -3 19 C-3 18.01 -3 17.02 -3 16 C-4.98 16.66 -6.96 17.32 -9 18 C-8.34 17.21625 -7.68 16.4325 -7 15.625 C-4.43582143 11.8904124 -4.7869818 8.55621845 -5.15234375 4.171875 C-5.10207031 3.45515625 -5.05179688 2.7384375 -5 2 C-2 0 -2 0 0 0 Z " fill="#2F6241" transform="translate(36,12)"/>
<path d="M0 0 C0.66 0.33 1.32 0.66 2 1 C1.01 2.485 1.01 2.485 0 4 C3.3 3.67 6.6 3.34 10 3 C10.33 3.66 10.66 4.32 11 5 C1.95939412 8.85798749 -5.29892588 9.32026453 -15 8 C-15 7.67 -15 7.34 -15 7 C-10.38 6.67 -5.76 6.34 -1 6 C-1.66 5.67 -2.32 5.34 -3 5 C-2.625 3.0625 -2.625 3.0625 -2 1 C-1.34 0.67 -0.68 0.34 0 0 Z " fill="#427844" transform="translate(65,117)"/>
<path d="M0 0 C0.66 0.33 1.32 0.66 2 1 C1.34 1.66 0.68 2.32 0 3 C-0.55400354 4.45979934 -1.04841205 5.94284206 -1.5 7.4375 C-2.41682554 10.46202775 -3.20971464 12.31457196 -5 15 C-7 16 -7 16 -10 16 C-10.33 15.34 -10.66 14.68 -11 14 C-10.34 14 -9.68 14 -9 14 C-8.34 12.02 -7.68 10.04 -7 8 C-5.35 7.67 -3.7 7.34 -2 7 C-2 6.34 -2 5.68 -2 5 C-2.99 4.67 -3.98 4.34 -5 4 C-3 1 -3 1 0 0 Z " fill="#769C79" transform="translate(91,90)"/>
<path d="M0 0 C4.21654356 1.48635116 7.62478605 3.61249159 11.3125 6.125 C12.38113281 6.84945313 13.44976562 7.57390625 14.55078125 8.3203125 C15.76314453 9.15175781 15.76314453 9.15175781 17 10 C15 11 15 11 12.5625 10.5 C9.89551669 9.76146263 9.89551669 9.76146263 7 11 C4.10067643 8.60490662 3.49831724 6.68754757 3 3 C1.68 3 0.36 3 -1 3 C-0.67 2.01 -0.34 1.02 0 0 Z " fill="#3A6B4A" transform="translate(60,2)"/>
<path d="M0 0 C0.66 0.33 1.32 0.66 2 1 C2.45703125 3.00390625 2.45703125 3.00390625 2.8125 5.5625 C4.44574908 14.36948156 8.99815536 19.67294817 16 25 C15.34 25.66 14.68 26.32 14 27 C5.9916265 20.91363614 1.10047129 13.75913446 -0.87109375 3.8125 C-1 2 -1 2 0 0 Z " fill="#366A36" transform="translate(18,90)"/>
<path d="M0 0 C1.65 0 3.3 0 5 0 C5 1.32 5 2.64 5 4 C5.66 4 6.32 4 7 4 C7 2.68 7 1.36 7 0 C9.31 0 11.62 0 14 0 C14.33 1.65 14.66 3.3 15 5 C11.37 5 7.74 5 4 5 C3.67 4.34 3.34 3.68 3 3 C2.34 3 1.68 3 1 3 C1 3.99 1 4.98 1 6 C0.34 5.67 -0.32 5.34 -1 5 C-0.67 3.35 -0.34 1.7 0 0 Z " fill="#69936B" transform="translate(46,118)"/>
<path d="M0 0 C1.00496852 3.01490557 1.10335303 5.04181692 1.0625 8.1875 C1.05347656 9.08855469 1.04445313 9.98960938 1.03515625 10.91796875 C1.02355469 11.60503906 1.01195312 12.29210937 1 13 C-0.98 13 -2.96 13 -5 13 C-5 9.37 -5 5.74 -5 2 C-3.35 2 -1.7 2 0 2 C0 1.34 0 0.68 0 0 Z " fill="#104C1A" transform="translate(58,96)"/>
<path d="M0 0 C1.49080078 0.43119141 1.49080078 0.43119141 3.01171875 0.87109375 C4.15060547 1.21333984 4.15060547 1.21333984 5.3125 1.5625 C5.3125 2.8825 5.3125 4.2025 5.3125 5.5625 C-3.25892857 4.5625 -3.25892857 4.5625 -6.6875 3.5625 C-6.6875 2.9025 -6.6875 2.2425 -6.6875 1.5625 C-7.3475 1.5625 -8.0075 1.5625 -8.6875 1.5625 C-8.6875 0.9025 -8.6875 0.2425 -8.6875 -0.4375 C-5.05554504 -1.64815165 -3.62218371 -1.06534815 0 0 Z " fill="#0C481C" transform="translate(39.6875,126.4375)"/>
<path d="M0 0 C0.99 0.33 1.98 0.66 3 1 C3.87136625 4.48546498 3.8573678 6.57052879 3 10 C3.38567131 12.68149993 3.38567131 12.68149993 4 15 C3.01 15.66 2.02 16.32 1 17 C-1.32613583 13.51079626 -1.24247293 12.05047454 -1.1875 7.9375 C-1.18105469 6.87402344 -1.17460937 5.81054688 -1.16796875 4.71484375 C-1 2 -1 2 0 0 Z " fill="#B9D0C1" transform="translate(21,72)"/>
<path d="M0 0 C8.70057407 -0.6727248 14.55361975 0.38719808 22 5 C21.5205537 9.21912747 20.83374881 11.79663178 18 15 C17.34 14.34 16.68 13.68 16 13 C16.66 13 17.32 13 18 13 C18.33 10.69 18.66 8.38 19 6 C12.5849443 3.12059087 7.02952752 1.4535179 0 1 C0 0.67 0 0.34 0 0 Z " fill="#2D5A3C" transform="translate(51,26)"/>
<path d="M0 0 C5.28 0.33 10.56 0.66 16 1 C16 1.33 16 1.66 16 2 C13.69 2.33 11.38 2.66 9 3 C9 4.32 9 5.64 9 7 C8.34 7 7.68 7 7 7 C7 5.68 7 4.36 7 3 C5.35 3 3.7 3 2 3 C2 4.65 2 6.3 2 8 C0.35 8 -1.3 8 -3 8 C-1.68 7.67 -0.36 7.34 1 7 C0.4740625 5.824375 0.4740625 5.824375 -0.0625 4.625 C-0.371875 3.75875 -0.68125 2.8925 -1 2 C-0.67 1.34 -0.34 0.68 0 0 Z " fill="#D7E3D7" transform="translate(44,115)"/>
<path d="M0 0 C4.51219512 -0.36585366 4.51219512 -0.36585366 6.75 1.3125 C8 3 8 3 9 6 C7.5625 9.1875 7.5625 9.1875 6 12 C5.34 11.67 4.68 11.34 4 11 C4.33 9.68 4.66 8.36 5 7 C4.01 7.33 3.02 7.66 2 8 C2 7.01 2 6.02 2 5 C0.56249809 3.31201173 0.56249809 3.31201173 -1 2 C-0.67 1.34 -0.34 0.68 0 0 Z " fill="#97B498" transform="translate(22,95)"/>
<path d="M0 0 C0.66 0 1.32 0 2 0 C0.65586958 8.2093127 -3.31697302 14.1820038 -10 19 C-10.33 18.01 -10.66 17.02 -11 16 C-10.67 15.67 -10.34 15.34 -10 15 C-10 14.01 -10 13.02 -10 12 C-9.01 12 -8.02 12 -7 12 C-6.67 11.34 -6.34 10.68 -6 10 C-5.01 9.34 -4.02 8.68 -3 8 C-1.99831469 6.05167065 -1.99831469 6.05167065 -1.3125 3.875 C-1.06113281 3.15054688 -0.80976562 2.42609375 -0.55078125 1.6796875 C-0.36902344 1.12539062 -0.18726562 0.57109375 0 0 Z " fill="#D5E7D5" transform="translate(90,94)"/>
<path d="M0 0 C0.66 0 1.32 0 2 0 C2 0.66 2 1.32 2 2 C1.34 2 0.68 2 0 2 C0 2.99 0 3.98 0 5 C0.66 5 1.32 5 2 5 C2 5.66 2 6.32 2 7 C-1.3 7.33 -4.6 7.66 -8 8 C-10 4 -10 4 -10 1 C-9.01 1.33 -8.02 1.66 -7 2 C-6.67 2.99 -6.34 3.98 -6 5 C-6 3.68 -6 2.36 -6 1 C-5.34 1 -4.68 1 -4 1 C-3.67 1.99 -3.34 2.98 -3 4 C-3.33 4.66 -3.66 5.32 -4 6 C-3.34 5.67 -2.68 5.34 -2 5 C-1.6278958 3.67696283 -1.29369827 2.34262065 -1 1 C-0.67 0.67 -0.34 0.34 0 0 Z " fill="#88A292" transform="translate(57,29)"/>
<path d="M0 0 C-0.25 2.375 -0.25 2.375 -1 5 C-3.94751382 6.94746449 -6.26535169 7.22748966 -9.75 7.125 C-10.54921875 7.10695313 -11.3484375 7.08890625 -12.171875 7.0703125 C-12.77515625 7.04710937 -13.3784375 7.02390625 -14 7 C-11.86099367 4.66714622 -9.83344647 3.2131241 -7 1.8125 C-6.319375 1.46832031 -5.63875 1.12414062 -4.9375 0.76953125 C-3 0 -3 0 0 0 Z " fill="#084319" transform="translate(33,28)"/>
<path d="M0 0 C0 0.66 0 1.32 0 2 C-0.99 2.33 -1.98 2.66 -3 3 C-3.33 4.98 -3.66 6.96 -4 9 C-4.99 8.67 -5.98 8.34 -7 8 C-7 6.68 -7 5.36 -7 4 C-7.66 4 -8.32 4 -9 4 C-9.33 4.99 -9.66 5.98 -10 7 C-10.66 6.01 -11.32 5.02 -12 4 C-7.81413519 0.81076967 -5.29441695 -0.50423019 0 0 Z " fill="#F7FAF8" transform="translate(58,38)"/>
<path d="M0 0 C4.29 0 8.58 0 13 0 C12.67 1.32 12.34 2.64 12 4 C8.37 4 4.74 4 1 4 C0.67 2.68 0.34 1.36 0 0 Z " fill="#7B9D87" transform="translate(49,67)"/>
<path d="M0 0 C4.875 4.75 4.875 4.75 6 7 C5.34 7 4.68 7 4 7 C4 7.66 4 8.32 4 9 C3.34 9 2.68 9 2 9 C1.67 9.66 1.34 10.32 1 11 C-0.32 9.68 -1.64 8.36 -3 7 C-1.125 1.125 -1.125 1.125 0 0 Z " fill="#A9B9AD" transform="translate(70,63)"/>
<path d="M0 0 C0.99 0.33 1.98 0.66 3 1 C3.875 2.8125 3.875 2.8125 4 5 C2.6875 7.25 2.6875 7.25 1 9 C0.34 9 -0.32 9 -1 9 C-1 8.34 -1 7.68 -1 7 C-1.66 7 -2.32 7 -3 7 C-3.33 5.68 -3.66 4.36 -4 3 C-2.1875 1.4375 -2.1875 1.4375 0 0 Z " fill="#A4B4A9" transform="translate(40,65)"/>
<path d="M0 0 C2.475 0.99 2.475 0.99 5 2 C4.34 4.31 3.68 6.62 3 9 C1.68 8.67 0.36 8.34 -1 8 C-1 7.34 -1 6.68 -1 6 C-1.66 6 -2.32 6 -3 6 C-1.125 1.125 -1.125 1.125 0 0 Z " fill="#9FB2A6" transform="translate(45,69)"/>
<path d="M0 0 C0.66 0.33 1.32 0.66 2 1 C2.36637589 7.35051546 2.36637589 7.35051546 0.625 10.4375 C-1 12 -1 12 -3 12 C-3.2954439 6.97745369 -2.98514628 4.10457614 0 0 Z " fill="#B8CDC1" transform="translate(24,59)"/>
<path d="M0 0 C1.32 0.66 2.64 1.32 4 2 C3.67 2.66 3.34 3.32 3 4 C5.97 4.495 5.97 4.495 9 5 C9 6.32 9 7.64 9 9 C4.80639551 8.32902328 1.59665648 6.1441606 -2 4 C-1.34 2.68 -0.68 1.36 0 0 Z " fill="#104D24" transform="translate(56,1)"/>
<path d="M0 0 C-0.33 0.99 -0.66 1.98 -1 3 C-1.99 2.67 -2.98 2.34 -4 2 C-4.33 2.99 -4.66 3.98 -5 5 C-7.64 5 -10.28 5 -13 5 C-10.09360225 0.64040337 -5.20498689 -2.29019423 0 0 Z " fill="#0C461C" transform="translate(82,125)"/>
<path d="M0 0 C1.70884005 1.62339805 3.37446717 3.29319053 5 5 C5 5.66 5 6.32 5 7 C2.50935112 7.68707555 0.62113708 8 -2 8 C-2.66 6.02 -3.32 4.04 -4 2 C-2.68 1.34 -1.36 0.68 0 0 Z " fill="#93A798" transform="translate(65,69)"/>
<path d="M0 0 C4.29 0 8.58 0 13 0 C13 0.99 13 1.98 13 3 C8.71 3 4.42 3 0 3 C0 2.01 0 1.02 0 0 Z " fill="#053F15" transform="translate(49,64)"/>
<path d="M0 0 C0.66 0 1.32 0 2 0 C2.33 2.64 2.66 5.28 3 8 C2.67 7.01 2.34 6.02 2 5 C-0.31 5.66 -2.62 6.32 -5 7 C-5.33 5.02 -5.66 3.04 -6 1 C-4.7934375 1.0309375 -4.7934375 1.0309375 -3.5625 1.0625 C-1.06645115 1.29633621 -1.06645115 1.29633621 0 0 Z " fill="#E7F1E8" transform="translate(25,90)"/>
<path d="M0 0 C0.33 0.66 0.66 1.32 1 2 C0.195625 2.12375 -0.60875 2.2475 -1.4375 2.375 C-2.7059375 2.684375 -2.7059375 2.684375 -4 3 C-4.33 3.66 -4.66 4.32 -5 5 C-4.01 5.33 -3.02 5.66 -2 6 C-6.05431692 7.15837626 -8.21812119 6.83691257 -12 5 C-7.81374099 0.67419902 -6.05150555 -0.13155447 0 0 Z " fill="#39694A" transform="translate(59,0)"/>
<path d="M0 0 C0 3.58912412 -0.66436554 4.10857029 -3 6.6875 C-3.556875 7.31011719 -4.11375 7.93273437 -4.6875 8.57421875 C-5.120625 9.04472656 -5.55375 9.51523438 -6 10 C-6.33 9.34 -6.66 8.68 -7 8 C-7.66 8 -8.32 8 -9 8 C-8.6875 6.0625 -8.6875 6.0625 -8 4 C-7.01 3.67 -6.02 3.34 -5 3 C-4.34 3.33 -3.68 3.66 -3 4 C-3.33 3.01 -3.66 2.02 -4 1 C-2.68 0.67 -1.36 0.34 0 0 Z " fill="#437251" transform="translate(97,113)"/>
<path d="M0 0 C0.99 0.33 1.98 0.66 3 1 C2.98839844 1.84304687 2.97679687 2.68609375 2.96484375 3.5546875 C2.95582031 4.65039062 2.94679688 5.74609375 2.9375 6.875 C2.92589844 7.96554688 2.91429687 9.05609375 2.90234375 10.1796875 C2.80255697 12.95177546 2.80255697 12.95177546 4 15 C2.68 14.67 1.36 14.34 0 14 C-0.76379333 10.26589925 -1.09361839 7.64539462 0 4 C0 2.68 0 1.36 0 0 Z " fill="#52785E" transform="translate(18,74)"/>
<path d="M0 0 C1.67542976 0.28604898 3.34385343 0.61781233 5 1 C5.28875 1.94875 5.5775 2.8975 5.875 3.875 C6.76825109 7.05211578 6.76825109 7.05211578 9 9 C8.01 9 7.02 9 6 9 C5.67 10.32 5.34 11.64 5 13 C4.67 11.02 4.34 9.04 4 7 C3.34 7 2.68 7 2 7 C1.87625 6.195625 1.7525 5.39125 1.625 4.5625 C1.315625 3.2940625 1.315625 3.2940625 1 2 C0.34 1.67 -0.32 1.34 -1 1 C-0.67 0.67 -0.34 0.34 0 0 Z " fill="#E1ECE4" transform="translate(61,39)"/>
<path d="M0 0 C5.61 0 11.22 0 17 0 C17 0.33 17 0.66 17 1 C16.030625 1.12375 15.06125 1.2475 14.0625 1.375 C12.5465625 1.684375 12.5465625 1.684375 11 2 C10.67 2.66 10.34 3.32 10 4 C3.375 3.375 3.375 3.375 0 0 Z " fill="#E4EEE5" transform="translate(42,126)"/>
<path d="M0 0 C1.67542976 0.28604898 3.34385343 0.61781233 5 1 C5.33 2.98 5.66 4.96 6 7 C4.68 7.33 3.36 7.66 2 8 C1.01 5.69 0.02 3.38 -1 1 C-0.67 0.67 -0.34 0.34 0 0 Z " fill="#A9BEAF" transform="translate(41,31)"/>
<path d="M0 0 C2.64 0.33 5.28 0.66 8 1 C7 4 7 4 4.0625 5.5625 C3.051875 6.036875 2.04125 6.51125 1 7 C0.34 7.66 -0.32 8.32 -1 9 C-1.92078561 6.4218003 -2.16347909 5.38145121 -1.0625 2.8125 C-0.5365625 1.9153125 -0.5365625 1.9153125 0 1 C0 0.67 0 0.34 0 0 Z " fill="#134E25" transform="translate(8,29)"/>
<path d="M0 0 C-0.99 0.66 -1.98 1.32 -3 2 C-3.72382467 4.05925139 -3.72382467 4.05925139 -4 6 C-4.66 5.67 -5.32 5.34 -6 5 C-6 4.34 -6 3.68 -6 3 C-6.66 2.67 -7.32 2.34 -8 2 C-7.34 4.31 -6.68 6.62 -6 9 C-6.66 9 -7.32 9 -8 9 C-8.33 7.35 -8.66 5.7 -9 4 C-9.99 4 -10.98 4 -12 4 C-12 3.34 -12 2.68 -12 2 C-8.09971775 -0.60018816 -4.52565431 -0.15085514 0 0 Z " fill="#EDF4F0" transform="translate(55,28)"/>
<path d="M0 0 C4.62 1.32 9.24 2.64 14 4 C13.67 4.66 13.34 5.32 13 6 C11.82244141 5.7834375 11.82244141 5.7834375 10.62109375 5.5625 C5.00389036 4.57001253 -0.29497537 3.7406807 -6 4 C-6 3.67 -6 3.34 -6 3 C-5.195625 2.87625 -4.39125 2.7525 -3.5625 2.625 C-2.716875 2.41875 -1.87125 2.2125 -1 2 C-0.67 1.34 -0.34 0.68 0 0 Z " fill="#466C53" transform="translate(79,50)"/>
<path d="M0 0 C0.33 0 0.66 0 1 0 C1.08097324 2.27024968 1.13917704 4.54132075 1.1875 6.8125 C1.22230469 8.07707031 1.25710937 9.34164063 1.29296875 10.64453125 C1 14 1 14 -0.51171875 15.94921875 C-1.00285156 16.29597656 -1.49398437 16.64273437 -2 17 C-3.0625 14.625 -3.0625 14.625 -4 12 C-3.67 11.34 -3.34 10.68 -3 10 C-2.34 10 -1.68 10 -1 10 C-0.67 6.7 -0.34 3.4 0 0 Z " fill="#3A6B4A" transform="translate(79,14)"/>
<path d="M0 0 C3 0 3 0 5 1 C4.25 6.75 4.25 6.75 2 9 C1.67 8.67 1.34 8.34 1 8 C0.34 8.66 -0.32 9.32 -1 10 C-0.67 6.7 -0.34 3.4 0 0 Z " fill="#174F28" transform="translate(99,94)"/>
<path d="M0 0 C1.65 0.33 3.3 0.66 5 1 C4.67 2.65 4.34 4.3 4 6 C4.66 6 5.32 6 6 6 C6.33 4.68 6.66 3.36 7 2 C7.99 2.33 8.98 2.66 10 3 C9.67 3.99 9.34 4.98 9 6 C7.02 6.33 5.04 6.66 3 7 C2.67 5.68 2.34 4.36 2 3 C1.34 3 0.68 3 0 3 C-0.33 3.66 -0.66 4.32 -1 5 C-0.67 3.35 -0.34 1.7 0 0 Z " fill="#889E90" transform="translate(78,43)"/>
<path d="M0 0 C0.33 0 0.66 0 1 0 C1.05422947 1.4370809 1.09289723 2.87475462 1.125 4.3125 C1.14820313 5.11300781 1.17140625 5.91351563 1.1953125 6.73828125 C1 9 1 9 -1 12 C-1.66 12 -2.32 12 -3 12 C-3 9.36 -3 6.72 -3 4 C-2.34 4 -1.68 4 -1 4 C-0.67 2.68 -0.34 1.36 0 0 Z " fill="#064315" transform="translate(36,12)"/>
<path d="M0 0 C0.99 0 1.98 0 3 0 C2.67 0.66 2.34 1.32 2 2 C1.34 1.34 0.68 0.68 0 0 Z M0 2 C4.29 2 8.58 2 13 2 C9.83433427 4.11044382 7.48802585 4.75552077 3.8125 5.625 C2.72582031 5.88539063 1.63914063 6.14578125 0.51953125 6.4140625 C-0.31191406 6.60742188 -1.14335938 6.80078125 -2 7 C-1.34 5.35 -0.68 3.7 0 2 Z " fill="#4C7358" transform="translate(59,130)"/>
<path d="M0 0 C1.32 0.33 2.64 0.66 4 1 C3.6875 2.9375 3.6875 2.9375 3 5 C2.01 5.33 1.02 5.66 0 6 C0 6.66 0 7.32 0 8 C-1.65 8 -3.3 8 -5 8 C-3.35 5.36 -1.7 2.72 0 0 Z " fill="#104821" transform="translate(94,109)"/>
<path d="M0 0 C0.66 0 1.32 0 2 0 C2 0.66 2 1.32 2 2 C3.32 2.33 4.64 2.66 6 3 C6 3.33 6 3.66 6 4 C6.66 4 7.32 4 8 4 C7.34 6.31 6.68 8.62 6 11 C3.02753198 8.45217026 1.58464712 5.54659117 0 2 C0 1.34 0 0.68 0 0 Z " fill="#CBE1CF" transform="translate(20,97)"/>
<path d="M0 0 C2.3125 -0.25 2.3125 -0.25 5 0 C6.875 1.8125 6.875 1.8125 8 4 C7.67 4.99 7.34 5.98 7 7 C6.34 7 5.68 7 5 7 C5 6.01 5 5.02 5 4 C2.03 3.505 2.03 3.505 -1 3 C-0.67 2.01 -0.34 1.02 0 0 Z " fill="#4F7C5D" transform="translate(53,83)"/>
<path d="M0 0 C0.97608217 2.92824652 1.08226668 4.95613276 1 8 C0.01 8 -0.98 8 -2 8 C-3.33981486 8.3062434 -4.67511887 8.63451555 -6 9 C-7.125 5.25 -7.125 5.25 -6 3 C-4.68 3.66 -3.36 4.32 -2 5 C-1.855625 4.360625 -1.71125 3.72125 -1.5625 3.0625 C-1 1 -1 1 0 0 Z " fill="#638B69" transform="translate(92,68)"/>
<path d="M0 0 C0.99 0 1.98 0 3 0 C2.9278125 0.60328125 2.855625 1.2065625 2.78125 1.828125 C2.6884375 2.62734375 2.595625 3.4265625 2.5 4.25 C2.4071875 5.03890625 2.314375 5.8278125 2.21875 6.640625 C1.93845381 9.26890397 1.93845381 9.26890397 2 13 C-0.97 12.505 -0.97 12.505 -4 12 C-2.68 11.67 -1.36 11.34 0 11 C-0.185625 9.9275 -0.37125 8.855 -0.5625 7.75 C-0.9304568 4.59608454 -1.04465343 2.90181508 0 0 Z " fill="#315D3E" transform="translate(96,44)"/>
<path d="M0 0 C-0.33 1.65 -0.66 3.3 -1 5 C-7.625 5.25 -7.625 5.25 -11 3 C-9.73581754 2.30034557 -8.46334598 1.61565237 -7.1875 0.9375 C-6.47980469 0.55464844 -5.77210937 0.17179687 -5.04296875 -0.22265625 C-3 -1 -3 -1 0 0 Z " fill="#4D7257" transform="translate(39,49)"/>
<path d="M0 0 C0.33 0 0.66 0 1 0 C1 5.28 1 10.56 1 16 C-1.43357796 13.56642204 -1.41100776 12.48501131 -1.75 9.125 C-1.84796875 8.26132812 -1.9459375 7.39765625 -2.046875 6.5078125 C-1.99583479 3.77716101 -1.39884193 2.31346935 0 0 Z " fill="#E4EEE8" transform="translate(99,43)"/>
<path d="M0 0 C2.0625 0.4375 2.0625 0.4375 4 1 C3.875 3.3125 3.875 3.3125 3 6 C0.125 7.875 0.125 7.875 -3 9 C-3.99 8.67 -4.98 8.34 -6 8 C-5.34 8 -4.68 8 -4 8 C-3.67 6.68 -3.34 5.36 -3 4 C-2.67 4.66 -2.34 5.32 -2 6 C-1.34 6 -0.68 6 0 6 C-0.2784375 4.7934375 -0.2784375 4.7934375 -0.5625 3.5625 C-0.706875 2.716875 -0.85125 1.87125 -1 1 C-0.67 0.67 -0.34 0.34 0 0 Z " fill="#3B6C4B" transform="translate(81,122)"/>
<path d="M0 0 C3.76607955 1.25535985 4.26441793 2.52883585 6 6 C6 6.99 6 7.98 6 9 C4.68 9 3.36 9 2 9 C0.14223235 5.86501708 -0.20140476 3.62528568 0 0 Z " fill="#F5FAF9" transform="translate(44,62)"/>
<path d="M0 0 C0.99 0.33 1.98 0.66 3 1 C3.33 1.99 3.66 2.98 4 4 C4.33 3.34 4.66 2.68 5 2 C5.66 2.33 6.32 2.66 7 3 C6.67 3.99 6.34 4.98 6 6 C6.33 6.99 6.66 7.98 7 9 C4.28902773 8.62607279 3.17999533 8.18642373 1.25 6.1875 C0 4 0 4 0 0 Z " fill="#8CA797" transform="translate(62,30)"/>
<path d="M0 0 C0.33 0.99 0.66 1.98 1 3 C2.98 3 4.96 3 7 3 C7.33 2.34 7.66 1.68 8 1 C8 1.66 8 2.32 8 3 C10.64 2.67 13.28 2.34 16 2 C15.67 2.66 15.34 3.32 15 4 C9.39 4 3.78 4 -2 4 C-2 3.01 -2 2.02 -2 1 C-1.34 0.67 -0.68 0.34 0 0 Z " fill="#D1DFD5" transform="translate(49,120)"/>
<path d="M0 0 C0.99 0.495 0.99 0.495 2 1 C2 1.33 2 1.66 2 2 C3.98 2 5.96 2 8 2 C8 3.32 8 4.64 8 6 C5.125 6.625 5.125 6.625 2 7 C0 5 0 5 -0.125 2.375 C-0.08375 1.59125 -0.0425 0.8075 0 0 Z " fill="#3D6B4D" transform="translate(50,92)"/>
<path d="M0 0 C0.33 0.66 0.66 1.32 1 2 C2.33076989 2.34342449 3.66431979 2.67619874 5 3 C5.66 3.66 6.32 4.32 7 5 C6.9765625 7.1640625 6.9765625 7.1640625 6.625 9.625 C6.45871094 10.85089844 6.45871094 10.85089844 6.2890625 12.1015625 C6.14597656 13.04128906 6.14597656 13.04128906 6 14 C5.67 14 5.34 14 5 14 C5 11.03 5 8.06 5 5 C2.69 4.67 0.38 4.34 -2 4 C-1.34 3.67 -0.68 3.34 0 3 C0 2.01 0 1.02 0 0 Z " fill="#486F53" transform="translate(61,95)"/>
<path d="M0 0 C0.99 0.33 1.98 0.66 3 1 C3 1.99 3 2.98 3 4 C3.66 4.33 4.32 4.66 5 5 C5 5.66 5 6.32 5 7 C3.02 7.33 1.04 7.66 -1 8 C-0.67 5.36 -0.34 2.72 0 0 Z " fill="#D5E4D6" transform="translate(84,90)"/>
<path d="M0 0 C0.99 0 1.98 0 3 0 C2.67 1.65 2.34 3.3 2 5 C3.65 5 5.3 5 7 5 C3.81237635 7.12508244 1.73487777 7.5020163 -2 8 C-1.67 7.236875 -1.34 6.47375 -1 5.6875 C0.17436686 3.00930865 0.17436686 3.00930865 0 0 Z " fill="#CFDDD5" transform="translate(18,47)"/>
<path d="M0 0 C0.3125 2.3125 0.3125 2.3125 0 5 C-2.5 6.8125 -2.5 6.8125 -5 8 C-5.33 6.02 -5.66 4.04 -6 2 C-1.125 0 -1.125 0 0 0 Z " fill="#1C522C" transform="translate(42,9)"/>
<path d="M0 0 C0.77772405 2.33317216 1.42415568 4.61435923 2 7 C0.02 7.99 0.02 7.99 -2 9 C-2 8.01 -2 7.02 -2 6 C-2.66 5.34 -3.32 4.68 -4 4 C-4.33 4.66 -4.66 5.32 -5 6 C-5.66 5.01 -6.32 4.02 -7 3 C-5.5459375 2.5359375 -5.5459375 2.5359375 -4.0625 2.0625 C-1.15934208 1.30476658 -1.15934208 1.30476658 0 0 Z " fill="#63846E" transform="translate(25,68)"/>
<path d="M0 0 C-5.31329355 2.08989546 -9.28728072 3.6112798 -15 2 C-9.92264418 -0.84331926 -5.28364004 -3.10529722 0 0 Z " fill="#4C7359" transform="translate(29,42)"/>
<path d="M0 0 C2.5 2.3125 2.5 2.3125 5 5 C5 5.99 5 6.98 5 8 C2.525 7.01 2.525 7.01 0 6 C0 5.34 0 4.68 0 4 C-0.66 4 -1.32 4 -2 4 C-2 3.01 -2 2.02 -2 1 C-1.34 0.67 -0.68 0.34 0 0 Z " fill="#B9CBC1" transform="translate(59,30)"/>
<path d="M0 0 C1.98 0 3.96 0 6 0 C6.33 1.65 6.66 3.3 7 5 C4.36 4.34 1.72 3.68 -1 3 C-0.67 2.01 -0.34 1.02 0 0 Z " fill="#DEE9E1" transform="translate(54,80)"/>
<path d="M0 0 C2.97 0 5.94 0 9 0 C8.01 0.33 7.02 0.66 6 1 C5.67 3.31 5.34 5.62 5 8 C4.01 8 3.02 8 2 8 C1.855625 7.05125 1.71125 6.1025 1.5625 5.125 C1.17064601 2.1065506 1.17064601 2.1065506 0 0 Z " fill="#D9E4DB" transform="translate(51,27)"/>
<path d="M0 0 C1.98 0.66 3.96 1.32 6 2 C6 2.66 6 3.32 6 4 C6.66 4 7.32 4 8 4 C8 4.66 8 5.32 8 6 C2.33846154 4.52307692 2.33846154 4.52307692 0.625 1.875 C0.41875 1.25625 0.2125 0.6375 0 0 Z M5 0 C6.32 0.33 7.64 0.66 9 1 C8.01 1.33 7.02 1.66 6 2 C5.67 1.34 5.34 0.68 5 0 Z " fill="#3C6A48" transform="translate(25,124)"/>
<path d="M0 0 C0.33 0.66 0.66 1.32 1 2 C1.66 2 2.32 2 3 2 C4.125 5.75 4.125 5.75 3 8 C2.34 8 1.68 8 1 8 C1 7.34 1 6.68 1 6 C0.34 5.67 -0.32 5.34 -1 5 C-1.66 4.34 -2.32 3.68 -3 3 C-2.01 2.01 -1.02 1.02 0 0 Z " fill="#729375" transform="translate(31,104)"/>
<path d="M0 0 C2.31 0 4.62 0 7 0 C6.01 0.495 6.01 0.495 5 1 C5 2.98 5 4.96 5 7 C6.32 7.33 7.64 7.66 9 8 C7.02 8 5.04 8 3 8 C2.814375 6.576875 2.814375 6.576875 2.625 5.125 C2.28312823 1.91332809 2.28312823 1.91332809 0 0 Z " fill="#11461E" transform="translate(52,72)"/>
<path d="M0 0 C0.061875 0.61875 0.12375 1.2375 0.1875 1.875 C0.80922307 4.20952161 0.80922307 4.20952161 3.1875 5.125 C4.115625 5.41375 5.04375 5.7025 6 6 C7.093125 6.37125 8.18625 6.7425 9.3125 7.125 C10.199375 7.41375 11.08625 7.7025 12 8 C10.296875 9.1484375 10.296875 9.1484375 8 10 C5.640625 9.1015625 5.640625 9.1015625 3.25 7.625 C2.45078125 7.14289062 1.6515625 6.66078125 0.828125 6.1640625 C0.22484375 5.77992187 -0.3784375 5.39578125 -1 5 C-0.67 3.35 -0.34 1.7 0 0 Z " fill="#456F55" transform="translate(73,31)"/>
<path d="M0 0 C1.65 0 3.3 0 5 0 C5 0.99 5 1.98 5 3 C4.01 3 3.02 3 2 3 C2 4.65 2 6.3 2 8 C0.35 8 -1.3 8 -3 8 C-1.68 7.67 -0.36 7.34 1 7 C0.4740625 5.824375 0.4740625 5.824375 -0.0625 4.625 C-0.371875 3.75875 -0.68125 2.8925 -1 2 C-0.67 1.34 -0.34 0.68 0 0 Z " fill="#DEE8DF" transform="translate(44,115)"/>
<path d="M0 0 C2.22189824 2.22189824 2.92598892 4.08482708 4 7 C3.34 7 2.68 7 2 7 C2.33 8.32 2.66 9.64 3 11 C2.01 11.66 1.02 12.32 0 13 C0 12.01 0 11.02 0 10 C-0.26798644 7.64996508 -0.57152743 5.30612403 -0.87890625 2.9609375 C-0.91886719 2.31382813 -0.95882812 1.66671875 -1 1 C-0.67 0.67 -0.34 0.34 0 0 Z " fill="#487352" transform="translate(75,94)"/>
<path d="M0 0 C2.74782689 5.31246532 3.09669018 9.10189908 3 15 C2.67 15 2.34 15 2 15 C1.67 12.03 1.34 9.06 1 6 C0.01 5.67 -0.98 5.34 -2 5 C-1.125 1.125 -1.125 1.125 0 0 Z " fill="#7DA082" transform="translate(92,77)"/>
<path d="M0 0 C2.4375 0.75 2.4375 0.75 5 2 C5.8125 4.125 5.8125 4.125 6 6 C4.35 6.33 2.7 6.66 1 7 C0 4 0 4 0 0 Z " fill="#9EBBA2" transform="translate(85,59)"/>
<path d="M0 0 C0.99 0.66 1.98 1.32 3 2 C3.1875 4.625 3.1875 4.625 3 7 C2.01 6.01 1.02 5.02 0 4 C-0.33 6.31 -0.66 8.62 -1 11 C-1.33 11 -1.66 11 -2 11 C-2 9.02 -2 7.04 -2 5 C-2.66 4.67 -3.32 4.34 -4 4 C-2.68 2.68 -1.36 1.36 0 0 Z " fill="#D5E3D4" transform="translate(46,43)"/>
<path d="M0 0 C2.31 1.98 4.62 3.96 7 6 C6.34 6.66 5.68 7.32 5 8 C4.67 7.01 4.34 6.02 4 5 C0.2236068 4.7018576 0.2236068 4.7018576 -2 6 C-1.49396008 3.83125748 -1.00016187 2.00032373 0 0 Z " fill="#D3E6D6" transform="translate(30,101)"/>
<path d="M0 0 C2.31 0.33 4.62 0.66 7 1 C7 2.32 7 3.64 7 5 C5.35 5 3.7 5 2 5 C1.34 3.35 0.68 1.7 0 0 Z " fill="#6C9A7B" transform="translate(50,90)"/>
<path d="M0 0 C1.5625 1.25 1.5625 1.25 3 3 C2.625 5.0625 2.625 5.0625 2 7 C2.33 7.66 2.66 8.32 3 9 C1.68 9.33 0.36 9.66 -1 10 C-1.125 2.25 -1.125 2.25 0 0 Z " fill="#5C8662" transform="translate(85,77)"/>
<path d="M0 0 C2.09350689 3.4019487 2.17942163 6.05272412 2 10 C0.68 9.34 -0.64 8.68 -2 8 C-1.7525 7.1028125 -1.7525 7.1028125 -1.5 6.1875 C-0.8885876 3.88655664 -0.8885876 3.88655664 -1 1 C-0.67 0.67 -0.34 0.34 0 0 Z " fill="#557961" transform="translate(25,77)"/>
<path d="M0 0 C0.66 0.99 1.32 1.98 2 3 C1.34 3 0.68 3 0 3 C-0.33 3.99 -0.66 4.98 -1 6 C-0.67 4.02 -0.34 2.04 0 0 Z M3 0 C3.99 0.33 4.98 0.66 6 1 C5.34 2.98 4.68 4.96 4 7 C3.67 7 3.34 7 3 7 C2.61866701 5.0085944 2.28674418 3.00720923 2 1 C2.33 0.67 2.66 0.34 3 0 Z " fill="#497456" transform="translate(102,38)"/>
<path d="M0 0 C-5.14086661 3.42724441 -10.00797796 3.1015597 -16 3 C-16 2.67 -16 2.34 -16 2 C-15.37351562 1.86722656 -14.74703125 1.73445313 -14.1015625 1.59765625 C-13.28429687 1.42105469 -12.46703125 1.24445312 -11.625 1.0625 C-10.81289062 0.88847656 -10.00078125 0.71445312 -9.1640625 0.53515625 C-3.57554945 -0.84684066 -3.57554945 -0.84684066 0 0 Z " fill="#64886E" transform="translate(102,28)"/>
<path d="M0 0 C-0.33 1.32 -0.66 2.64 -1 4 C-1.66 4 -2.32 4 -3 4 C-3 6.64 -3 9.28 -3 12 C-3.33 12 -3.66 12 -4 12 C-4.33 8.7 -4.66 5.4 -5 2 C-2 0 -2 0 0 0 Z " fill="#5B866A" transform="translate(36,12)"/>
<path d="M0 0 C2.96175123 0.61277612 4.38058783 1.25372522 7 3 C3.7 3.66 0.4 4.32 -3 5 C-2.01 3.35 -1.02 1.7 0 0 Z " fill="#D9E6DC" transform="translate(64,125)"/>
<path d="M0 0 C0.66 0.33 1.32 0.66 2 1 C1.01 2.485 1.01 2.485 0 4 C1.32 4.33 2.64 4.66 4 5 C3.01 5.66 2.02 6.32 1 7 C-0.32 6.34 -1.64 5.68 -3 5 C-2.625 3.0625 -2.625 3.0625 -2 1 C-1.34 0.67 -0.68 0.34 0 0 Z " fill="#6C9270" transform="translate(65,117)"/>
<path d="M0 0 C0.33 0 0.66 0 1 0 C1 1.98 1 3.96 1 6 C0.01 6.495 0.01 6.495 -1 7 C-1.66 6.67 -2.32 6.34 -3 6 C-3 6.66 -3 7.32 -3 8 C-4.65 8 -6.3 8 -8 8 C-8 7.01 -8 6.02 -8 5 C-5.36 5 -2.72 5 0 5 C0 3.35 0 1.7 0 0 Z " fill="#3D6B4B" transform="translate(54,74)"/>
<path d="M0 0 C0.33 0.66 0.66 1.32 1 2 C1.66 2.33 2.32 2.66 3 3 C0.625 4.5625 0.625 4.5625 -2 6 C-2.66 5.67 -3.32 5.34 -4 5 C-4 4.01 -4 3.02 -4 2 C-2.68 1.34 -1.36 0.68 0 0 Z " fill="#94A99E" transform="translate(38,61)"/>
<path d="M0 0 C1.65 0 3.3 0 5 0 C5 1.32 5 2.64 5 4 C5.66 4.33 6.32 4.66 7 5 C6.01 5 5.02 5 4 5 C3.67 4.34 3.34 3.68 3 3 C2.34 3 1.68 3 1 3 C1 3.99 1 4.98 1 6 C0.34 5.67 -0.32 5.34 -1 5 C-0.67 3.35 -0.34 1.7 0 0 Z " fill="#5E8961" transform="translate(46,118)"/>
<path d="M0 0 C0.66 0 1.32 0 2 0 C3.03789581 1.64333504 4.03567924 3.31243867 5 5 C5.66 5.66 6.32 6.32 7 7 C5.35 7.66 3.7 8.32 2 9 C1.34 6.03 0.68 3.06 0 0 Z " fill="#D4E6D2" transform="translate(70,112)"/>
<path d="M0 0 C0.99 0.33 1.98 0.66 3 1 C1.25 5.875 1.25 5.875 -1 7 C-1.625 4.625 -1.625 4.625 -2 2 C-1.34 1.34 -0.68 0.68 0 0 Z " fill="#EEF3EB" transform="translate(36,108)"/>
<path d="M0 0 C1.9375 0.625 1.9375 0.625 4 2 C4.75 5.125 4.75 5.125 5 8 C4.67 7.34 4.34 6.68 4 6 C1.97536745 5.34786708 1.97536745 5.34786708 0 5 C0 3.35 0 1.7 0 0 Z " fill="#F7FBFA" transform="translate(14,99)"/>
<path d="M0 0 C0.0825 0.61875 0.165 1.2375 0.25 1.875 C0.81258459 4.18437567 0.81258459 4.18437567 3.0625 5.25 C3.701875 5.4975 4.34125 5.745 5 6 C0.82412255 7.39195915 -1.13474776 5.82323219 -5 4 C-4.01 3.67 -3.02 3.34 -2 3 C-2 2.34 -2 1.68 -2 1 C-1.34 0.67 -0.68 0.34 0 0 Z " fill="#C7D8CC" transform="translate(80,45)"/>
<path d="M0 0 C0.99 0 1.98 0 3 0 C3 2.31 3 4.62 3 7 C2.34 7 1.68 7 1 7 C0.67 7.66 0.34 8.32 0 9 C0 6.03 0 3.06 0 0 Z " fill="#014113" transform="translate(75,17)"/>
<path d="M0 0 C0.99 0.33 1.98 0.66 3 1 C3.33 1.99 3.66 2.98 4 4 C2.5625 6.1875 2.5625 6.1875 1 8 C1 6.68 1 5.36 1 4 C-0.32 3.67 -1.64 3.34 -3 3 C-2.01 2.01 -1.02 1.02 0 0 Z " fill="#69896C" transform="translate(26,99)"/>
<path d="M0 0 C1.32 1.32 2.64 2.64 4 4 C3 6 3 6 1 7 C0.01 7 -0.98 7 -2 7 C-2.33 6.34 -2.66 5.68 -3 5 C-2.34 5 -1.68 5 -1 5 C-0.67 3.35 -0.34 1.7 0 0 Z " fill="#587D5C" transform="translate(83,99)"/>
<path d="M0 0 C1.98 0.66 3.96 1.32 6 2 C5.67 2.99 5.34 3.98 5 5 C3.35 4.67 1.7 4.34 0 4 C0 2.68 0 1.36 0 0 Z " fill="#E0ECE2" transform="translate(31,120)"/>
<path d="M0 0 C0.66 0.99 1.32 1.98 2 3 C2.53625 3.680625 3.0725 4.36125 3.625 5.0625 C5 7 5 7 5 9 C4.38125 8.649375 3.7625 8.29875 3.125 7.9375 C2.073125 7.4734375 2.073125 7.4734375 1 7 C0.01 7.495 0.01 7.495 -1 8 C-0.67 5.36 -0.34 2.72 0 0 Z " fill="#476D53" transform="translate(61,87)"/>
<path d="M0 0 C1.32 0.66 2.64 1.32 4 2 C3.67 3.32 3.34 4.64 3 6 C2.01 6 1.02 6 0 6 C-0.38218767 4.34385343 -0.71395102 2.67542976 -1 1 C-0.67 0.67 -0.34 0.34 0 0 Z " fill="#B0C9B8" transform="translate(21,82)"/>
<path d="M0 0 C0.66 0 1.32 0 2 0 C2.33 1.98 2.66 3.96 3 6 C1.68 6 0.36 6 -1 6 C-1 3 -1 3 0 0 Z " fill="#C0D5C1" transform="translate(88,67)"/>
<path d="M0 0 C0.66 0.33 1.32 0.66 2 1 C2 3.31 2 5.62 2 8 C1.01 8.495 1.01 8.495 0 9 C-1.10844919 5.67465243 -0.84454356 3.37817425 0 0 Z " fill="#6E8E78" transform="translate(24,59)"/>
<path d="M0 0 C1.625 1.5 1.625 1.5 3 3 C3.66 2.67 4.32 2.34 5 2 C5 2.99 5 3.98 5 5 C4.01 5.33 3.02 5.66 2 6 C1.01 5.34 0.02 4.68 -1 4 C-1 3.34 -1 2.68 -1 2 C-1.99 1.67 -2.98 1.34 -4 1 C-2 0 -2 0 0 0 Z " fill="#9AAE9F" transform="translate(39,40)"/>
<path d="M0 0 C1.32 0 2.64 0 4 0 C4.33 1.65 4.66 3.3 5 5 C3.35 4.67 1.7 4.34 0 4 C0 2.68 0 1.36 0 0 Z " fill="#E5EEE7" transform="translate(77,33)"/>
<path d="M0 0 C-0.75 1.9375 -0.75 1.9375 -2 4 C-4.125 4.75 -4.125 4.75 -6 5 C-6 4.01 -6 3.02 -6 2 C-3 0 -3 0 0 0 Z " fill="#386848" transform="translate(9,30)"/>
<path d="M0 0 C1.70884005 1.62339805 3.37446717 3.29319053 5 5 C5 5.66 5 6.32 5 7 C4.01 7.33 3.02 7.66 2 8 C0.23537317 4.91190305 0 3.76687864 0 0 Z " fill="#ABBCB1" transform="translate(65,69)"/>
<path d="M0 0 C-0.33 0.99 -0.66 1.98 -1 3 C-1.66 3 -2.32 3 -3 3 C-3.66 4.65 -4.32 6.3 -5 8 C-5.33 8 -5.66 8 -6 8 C-6 5.69 -6 3.38 -6 1 C-3.92446352 0.4465236 -2.15634036 0 0 0 Z " fill="#DFEAE4" transform="translate(24,55)"/>
<path d="M0 0 C0.33 0.66 0.66 1.32 1 2 C1.66 2 2.32 2 3 2 C3 2.66 3 3.32 3 4 C1.35 4.66 -0.3 5.32 -2 6 C-2 4.35 -2 2.7 -2 1 C-1.34 0.67 -0.68 0.34 0 0 Z " fill="#114920" transform="translate(49,4)"/>
<path d="M0 0 C1.32 0.66 2.64 1.32 4 2 C3.67 3.32 3.34 4.64 3 6 C1.68 5.34 0.36 4.68 -1 4 C-0.67 2.68 -0.34 1.36 0 0 Z " fill="#084318" transform="translate(20,116)"/>
<path d="M0 0 C0.33 0.99 0.66 1.98 1 3 C1.99 3.33 2.98 3.66 4 4 C2.35 4.66 0.7 5.32 -1 6 C-1.66 4.35 -2.32 2.7 -3 1 C-2.01 0.67 -1.02 0.34 0 0 Z " fill="#8CA093" transform="translate(34,42)"/>
<path d="M0 0 C2.97 0.33 5.94 0.66 9 1 C8.34 1.66 7.68 2.32 7 3 C6.34 2.67 5.68 2.34 5 2 C4.67 2.99 4.34 3.98 4 5 C2.68 3.35 1.36 1.7 0 0 Z " fill="#ECF3ED" transform="translate(57,28)"/>
<path d="M0 0 C1.32 0.66 2.64 1.32 4 2 C3.01 2.99 2.02 3.98 1 5 C0.01 4.67 -0.98 4.34 -2 4 C-1.34 2.68 -0.68 1.36 0 0 Z " fill="#064319" transform="translate(56,1)"/>
<path d="M0 0 C1.65 0 3.3 0 5 0 C4.67 1.32 4.34 2.64 4 4 C2.35 3.67 0.7 3.34 -1 3 C-0.67 2.01 -0.34 1.02 0 0 Z " fill="#094619" transform="translate(47,130)"/>
<path d="M0 0 C1.64826111 2.96687001 2.44271087 5.65626525 3 9 C2.34 9 1.68 9 1 9 C-1.09230769 4.56923077 -1.09230769 4.56923077 -0.625 1.6875 C-0.41875 1.130625 -0.2125 0.57375 0 0 Z " fill="#E2EEDF" transform="translate(17,94)"/>
<path d="M0 0 C0.99 0.33 1.98 0.66 3 1 C2.67 2.32 2.34 3.64 2 5 C0.68 4.67 -0.64 4.34 -2 4 C-1.34 2.68 -0.68 1.36 0 0 Z " fill="#235E29" transform="translate(25,86)"/>
<path d="M0 0 C0.33 0.99 0.66 1.98 1 3 C1.66 3 2.32 3 3 3 C3 4.32 3 5.64 3 7 C1.68 6.34 0.36 5.68 -1 5 C-0.67 3.35 -0.34 1.7 0 0 Z " fill="#FCFCFD" transform="translate(50,71)"/>
<path d="M0 0 C0 1.32 0 2.64 0 4 C-1.32 4.33 -2.64 4.66 -4 5 C-4 4.01 -4 3.02 -4 2 C-4.66 1.67 -5.32 1.34 -6 1 C-3.92446352 0.4465236 -2.15634036 0 0 0 Z " fill="#E4ECE6" transform="translate(31,53)"/>
<path d="M0 0 C-0.33 1.65 -0.66 3.3 -1 5 C-2.65 4.67 -4.3 4.34 -6 4 C-2.25 0 -2.25 0 0 0 Z " fill="#F6F8F7" transform="translate(31,41)"/>
<path d="M0 0 C0.66 2.64 1.32 5.28 2 8 C1.34 8 0.68 8 0 8 C-0.33 6.35 -0.66 4.7 -1 3 C-1.99 3 -2.98 3 -4 3 C-4 2.34 -4 1.68 -4 1 C-2 0 -2 0 0 0 Z " fill="#E2EDE5" transform="translate(47,29)"/>
<path d="M0 0 C0.33 0 0.66 0 1 0 C1 2.97 1 5.94 1 9 C0.67 9 0.34 9 0 9 C0 6.03 0 3.06 0 0 Z " fill="#FFFFFF" transform="translate(113,37)"/>
</svg>
